<svg id="Layer_1" data-name="Layer 1" xmlns="http://www.w3.org/2000/svg" viewBox="0 0 1203.5 510.08"><defs><style>.cls-1{font-size:248.82px;fill:#f10f0f;font-family:Futura-Bold, Futura;font-weight:700;}.cls-1,.cls-5{letter-spacing:-0.1em;}.cls-2{letter-spacing:-0.11em;}.cls-3{letter-spacing:-0.1em;}.cls-15,.cls-4{fill:#29a0ac;}.cls-4{letter-spacing:-0.1em;}.cls-6{fill:#1a1a1a;}.cls-10,.cls-11,.cls-12,.cls-13,.cls-6,.cls-7,.cls-8,.cls-9{fill-rule:evenodd;}.cls-7{fill:#666;}.cls-8{fill:#b3b3b3;}.cls-9{fill:gray;}.cls-10{fill:#fff;}.cls-11{fill:#999;}.cls-12{fill:#eaa416;}.cls-13{fill:#f9d92e;}.cls-14{fill:none;}</style></defs><text class="cls-1" transform="translate(245.41 226.5) scale(0.97 1)">MELIS<tspan class="cls-2" x="656.12" y="0">S</tspan><tspan class="cls-3" x="788.49" y="0">A</tspan><tspan class="cls-4"><tspan x="-253.29" y="197.98">S</tspan><tspan class="cls-5" x="-116.2" y="197.98">T MOORE</tspan></tspan></text><path class="cls-6" d="M232.74,465.37Z" transform="translate(-52 -261.96)"/><path class="cls-6" d="M230.78,466.13Z" transform="translate(-52 -261.96)"/><path class="cls-6" d="M256.51,370l0,.11A1,1,0,0,0,256.51,370Z" transform="translate(-52 -261.96)"/><path class="cls-6" d="M271.54,296.27C259.29,302,231.8,319,225.68,323s-15.78,10.4-16.21,10.7-1.23-.41-1.23-.41a4.37,4.37,0,0,0,.93-1.4,4.57,4.57,0,0,1-2.68.13A4.21,4.21,0,0,1,209,330a13.47,13.47,0,0,0-3.27.75l1.08-1.26-1.47.72-.14-1.17c4.49-4.88,5.41-10.89,5.87-12.39s0-2.87,2.67-4.77,11.9-4.47,12.87-5.54S228,304,230.63,303s3.81-4.74,3.81-4.74c3.52-1.83,4.17-4.38,4.17-4.38s4.31-2.07,4.51-2.27-.5-1.54-.41-1.7,3.46-2.47,3.88-2.79-.19-1.31-.06-1.61,5.13-1,5.13-1l-.72-.61a1.88,1.88,0,0,1,.56-1.31c.58-.51,4.86-.68,7.54-1.84s-4-2.67-5.68-2.09a9.36,9.36,0,0,0-3.29,2.59l-.4-.63s-.46-.32-1.19.56a15.85,15.85,0,0,1-3.52,2.23l-1.23-.81s-.23.21-.27,1.2-1.84,4.68-1.84,4.68-1.3-1-1.64-.66-2,4.44-2,4.44-3.28.16-4.59,1-6.11,5.76-6.11,5.76c-.83.07-6.32.77-9.22,2.46a25.81,25.81,0,0,0-6.72,6.08c-.45.83-1,1-1.52-.67s-2.15-3.45-3.61-2.85-.51,2.08-.3,3.67-1.25,4.13-2.24,5.7a15,15,0,0,0-1.63,6.73,7.45,7.45,0,0,1-2,4.59l-.38-2-.23,2.67s-.51-.91-.87-1.61a7,7,0,0,1-.31-2.46l-.5,2.74a8.87,8.87,0,0,1-.83-1.67c-.6-1.4-.84-2.18-.84-2.18a3.4,3.4,0,0,1-1,2,11.28,11.28,0,0,0-.47-3.28,5.64,5.64,0,0,1-1.23,1.89c1.43-4.08,1-8-1.17-10.65a4.61,4.61,0,0,0-5.3-1.35,7.69,7.69,0,0,0-1-1.39,3.39,3.39,0,0,1-.61-.77l.28,1.43s-.83-.87-1.27-1.39a3.94,3.94,0,0,1-.65-1l-.9.91v-1.35l-.62.62-.13-.58-1-.14.25-.54a23.08,23.08,0,0,0,1.14-2.38c.13-.53,1.53-1.57,1.8-2.24s-.58-2.2-.58-2.2,2.81-3.53,5.7-6.67A29.69,29.69,0,0,0,197.54,273c.58-9-2.91-11.2-3.76-11s1.28,3.15,2.14,9.49-4,14.38-7.47,17.79a95.46,95.46,0,0,0-6.43,7.07,5.12,5.12,0,0,0-1.51-.33c-.47.06-.86,1-1.47,2a3.58,3.58,0,0,0-.21,2.56,12.07,12.07,0,0,1-1.14,2.83l-.82-.85.25.88-1.23-.72s.3,1,.36,1.18-.93-.74-.93-.74l.29,1.21a7.1,7.1,0,0,0-1-.89,5.81,5.81,0,0,1-1-1.24s-.1,1.24-.1,1.4-.58-.79-.58-.79l.24,1.49-.53-.65s-.43-.24-1.09-.52a9.42,9.42,0,0,1-1.64-1.07l.07,1.45-1.1-.64-.39,1.22-.92-1.12a9.57,9.57,0,0,1-.5,1.89c-.3.65-.46,1.12-.46,1.12l0,.83-.82-1.26s.2,1.09.1,1-1-1-1-1a5.6,5.6,0,0,1,.11,1.56,8.16,8.16,0,0,0-.15,1.35l-.6-1.09s-.13,1.34-.19,1.18-.53-1.12-.53-1.12l-.42,1.36-.41-.82,0,1.18a12.33,12.33,0,0,1-2.74-1.33c-.37-.46-.74-1.42-1.88-1.76s-2-.76-2.42-.48a4.93,4.93,0,0,0-.89,1.25s-4.66-.72-9.52-.92-13.86-2.89-17.48-8.15-4-8.88-4.8-8.47-1.85,4.43,4.61,10.68a29.73,29.73,0,0,0,18.35,8c4.25.37,8.7,1.11,8.7,1.11s.41,1.69,1.05,2,2.38.15,2.84.45a21.64,21.64,0,0,0,2.44,1l.55.22-.68.8.29.52-.87,0,.91,1-1.29-.07a3.68,3.68,0,0,1,.22,1.2c0,.68,0,1.89,0,1.89l-.76-1.25a3.28,3.28,0,0,1,.07,1,7.84,7.84,0,0,0,.22,1.68,4.62,4.62,0,0,0-3,4.56c.23,3.43,2.49,6.61,6.29,8.67a5.61,5.61,0,0,1-2.18-.57,11.33,11.33,0,0,0,1.85,2.74,3.35,3.35,0,0,1-2.09-.83s.35.75.84,2.19a8.59,8.59,0,0,1,.51,1.79l-2.22-1.69a7.23,7.23,0,0,1,1.43,2c.2.77.44,1.78.44,1.78l-2-1.83,1,1.71a7.47,7.47,0,0,1-4.58-2c-2.05-2-4-3.39-5.73-3.89s-4.59-1.41-5.5-2.72-1.21-3.06-2.68-2.52-1.53,2.95-.76,4.54.21,1.83-.67,1.52a26,26,0,0,0-9.07,0c-3.28.7-7.82,3.87-8.48,4.38,0,0-6.83-.39-8.39-.16s-4.11,2.31-4.11,2.31-3.92-1.91-4.43-2-.77,1.59-.77,1.59-3.8-1.52-4.5-2.23-1-.71-1-.71l-.37,1.43a15.92,15.92,0,0,1-4.11.71c-1.13-.16-1.26.39-1.26.39l.13.74a9.18,9.18,0,0,0-4.17.29c-1.63.69-5.57,6.29-2.81,5.36s6.06-3.69,6.82-3.7a1.91,1.91,0,0,1,1.3.59l-.13.94s4.16-2.87,4.46-2.73.5,1.28,1,1.23,4.58-.6,4.75-.54.56,1.51.84,1.53,4.87-1.34,4.87-1.34,2.19,1.45,6,.44c0,0,3.37,2,6,.95s3.82-.4,5.26-.27,10-4.18,13.25-4.55,3.83.95,5.18,1.75,6.08,4.63,12.68,5.23l.68,1-1.58.45,1.65.22a13.37,13.37,0,0,0-2.92,1.63,4.2,4.2,0,0,1,3.19-.13,4.52,4.52,0,0,1-2.06,1.7,4.15,4.15,0,0,0,1.62.41s-.11,1-.63,1.13-12,1.83-19.2,3-39,7-51.94,11-28.89,14.67-26.93,22,21,14.51,28.82,13.4,9.93-2.2,14.59,0,16.38,8.14,34.24-1.77l-1.11,2.5,1.63-.37-3.13,7.43,2.33-2.53s-.19,5.54-1,7.5l1.78-2.38a39,39,0,0,0-.77,5,6.69,6.69,0,0,0,.36,2.82l.53-1.47a4.47,4.47,0,0,1,.57,2.42c-.11,1.3-.11,1.62-.11,1.62l1-1.6s-.68,4.6-1.8,6a9.38,9.38,0,0,1-2.71,2.18l1.05,1.29a13.73,13.73,0,0,1-3.24,3.31c-1.55.88.19,1.22.33,1.3a20.87,20.87,0,0,1-2.52,4.66c-1.2,1.31-.73,1.57-.45,1.65s1,.24,1,.24a12.52,12.52,0,0,0-.56,6.41c.71,3.18,6.62,4.74,6,3.55s-3.69-2.25-3.84-3.36a4.83,4.83,0,0,1,.64-2.48s3,1.67,2.89,1-1.94-1.7-2-3.26,1.21-1.54,1.31-1.67-.14-4.42.09-5.19,3-.22,3-.22l-.08-5.22s1.78.25,2-.52.51-6.21,1.21-7.73l.7-1.53.58,1.66s-.21-3.16-.14-3,.92,2.7.91,2.51l-.2-3.69a17,17,0,0,0,1.2,2c0-.27-.39-3.62-.39-3.62s1.94,1.76,1.88,1.63l-1-2.68,1.3-.06a7.85,7.85,0,0,1-.79-3.69c.23-1.63.38-3.64.38-3.64l1,2.12a4.17,4.17,0,0,1-.29-2.6,10,10,0,0,0-.41-3.93l1.11,1.53s-.47-2.15-.61-3.07-.18-1.82-.18-1.82l1.33,1.28a9.24,9.24,0,0,1-.63-2.18,5,5,0,0,0-.42-1.57l1.19,1.18s-.63-1.71-.63-1.86.33-4.16,1.35-5.08,4.32-2.19,6.37-4.49,2.91-2.76,4.12-2.66,5.89-2.54,9.26-4,6.81-4.26,7.65-3.52,1.14,1.51,2.81,2.19,3.12,1.25,2.38,1.72a59.92,59.92,0,0,1-6.89,3.73c-2,.78-4.83,2.11-5.8,3.56s-4,6.21-4.61,9,.11,4.24-.82,5.66a32.63,32.63,0,0,1-2.68,3.36L165,406.8a8.26,8.26,0,0,0-1.62,4.21,14.49,14.49,0,0,1-1,4.54l1.5-1.84-.08,4.09.44-1.87s.3,2.37.28,2.94-.34,2.21-.34,2.21l1-2.09s0,3.2.05,3.94a10.24,10.24,0,0,0,.24,1.57l.46-2.44a9,9,0,0,1,.7,2.91,5.34,5.34,0,0,0,.69,2.43l-.08-2.26a11.52,11.52,0,0,0,1.11,1.9,10.49,10.49,0,0,1,1.87,3.43,12.82,12.82,0,0,1,0,3.66l1.26-1.8s-.3,4.3-.34,4.68,1-1.9,1-1.9a28.6,28.6,0,0,1,0,4,38.77,38.77,0,0,1-1.58,4.17l1.93-1.5s-.9,2.26-1.37,3.83a9.26,9.26,0,0,0-.22,3.39,12.21,12.21,0,0,1,1.49-3.44,13.44,13.44,0,0,1-.08,3.61c-.32,1.29-1,3.28-1,3.28L173,450a28.23,28.23,0,0,0-1,4.95,24.29,24.29,0,0,0,.13,2.94l1.4-3.6.34,3.05.62-2.38a24.47,24.47,0,0,1,.52,3.73,13.77,13.77,0,0,1-.43,2.37l1.49-3.5s.12,3.32.15,4.5.07,1.92.07,1.92l1.46-3s.22,3.59.12,4,.62-.93.62-.93a9.45,9.45,0,0,1,0,2.56c-.23.59-.77,3.32-1.3,3.93s-1.23,1.26-.73,1.76a3.12,3.12,0,0,0,1.53.63s-.25,4.91-.8,6.1-.52,1.52-.36,1.61a10.72,10.72,0,0,0,1.86-.09,7.15,7.15,0,0,1-.34,3.88c-.79,1.44-1.73,2.49-1.23,2.83a6.45,6.45,0,0,0,2.29.31,16.16,16.16,0,0,0,1.08,4.78c1,2.47,2.44,3.39,4.27,3.44s5.26-1.84,4.52-2-3.67-.53-4.45-1.58-1.11-2.5-.89-2.49,3.63,3.38,3.45,1.72a4.51,4.51,0,0,0-2.92-3.43c-1.07-.25-2.18-.57-1.73-1.31s2.28-1.95,1.31-2.65-2.8-4.46-2.21-4.77,2.47-.49,1.86-1.76-2.49-4-2.21-4.84,2.22-.54,2.14-1.3-2.38-4.74-2.26-6.33.89-2.22,1.87-.56,5.93,2.84,5.79,2.48-3.86-1.91-4.37-3.78.6-3.06.09-4.06a7.38,7.38,0,0,0-1.16-1.66s2.55,2,2.25,1.61-2.19-3-2.19-3l1.3-.44a6.35,6.35,0,0,1-1.6-3,21.94,21.94,0,0,1,.05-3.54l1.18,1.81a6.8,6.8,0,0,1-1.08-3.92,18.88,18.88,0,0,0-.25-4.62l1.33,1.37-1.12-2.58-2-2.22,1.89.87-2.14-2.22s3.26,1.7,3.06,1.49-4-3-4.44-4a11.07,11.07,0,0,1-.7-1.81,11.53,11.53,0,0,0,1.9.81c-.17-.22-1.79-1.7-1.6-1.61s1.68.29,1.68.29a6.77,6.77,0,0,1-1.79-1.38c-.3-.55,1.2-.15,1.2-.15a6.63,6.63,0,0,1-1.38-1.83c-.32-.82-.8-2.62-.8-2.62l1.1,1.18a12.25,12.25,0,0,0-1.21-2.89,8.11,8.11,0,0,0-1.64-1.48h1.16a5.11,5.11,0,0,1-1.06-1.31,11.62,11.62,0,0,1-.91-2.2l1.5,1.34a21.39,21.39,0,0,1-1.47-2.45c-.42-.94-.25-2-.65-2.71a8.23,8.23,0,0,0-1.37-1.58s1.83.71,1.62.48-2.4-1.87-2.21-1.92,2.54.94,2,.44-2-1.55-2.14-2,1.38-.06,1.38-.06a4.1,4.1,0,0,1-1.1-1.43,7.82,7.82,0,0,1-.4-1.73s1.33,1.43,1.25,1.31a12.79,12.79,0,0,0-1.09-1.94c-.46-.57.62-.24.77-.14a5.46,5.46,0,0,1-1-1.52c-.25-.81-.05-1.33-.58-1.66s-1.25-.71-.84-1a12,12,0,0,0,4.44-5.46,11.38,11.38,0,0,1,5.26-5.37,17.48,17.48,0,0,0-1.64,4.25c-.75,2.81-1.55,4-1.87,4.12s-1.61,1-1.61,1l2.74-1.09a5.38,5.38,0,0,0-.65,2.86,7.71,7.71,0,0,1-.35,3.13c-.07.21-.54,1.21-.54,1.21L179.4,406s-.07,3.39,0,4.2a11.09,11.09,0,0,1-.12,1.77l1.4-1.39s-.8,1.91-.46,2.79a8.69,8.69,0,0,1,.4,2.23l.36-.89s.16,2.08.2,2.25.85-1.37.85-1.37a13.5,13.5,0,0,0,.6,2.92,11.84,11.84,0,0,1,.48,3.21,10.93,10.93,0,0,1,1-1.75c0,.17-.08,2.67-.2,3.53s-.64,2.64-.64,2.64l1.42-2.28a12.31,12.31,0,0,0-.17,2.9,11.5,11.5,0,0,0,.55,1.26l.06-1.18a13.12,13.12,0,0,1,.9,1.76,20.07,20.07,0,0,1,.62,3l.17-1.54s.75,1.85,1.1,2.69a12.28,12.28,0,0,1,.59,1.91l.21-1.43s1.15,2.89,1.24,3.45.77-1.43.77-1.43a4.79,4.79,0,0,0,.85,2.85,3.79,3.79,0,0,1,1.19,1.9,7.76,7.76,0,0,1-.07,1.09l.83-1.36a19.91,19.91,0,0,0,1.65,3.17c.95,1.43,1.49,2.44,1.49,2.44v1.61l.35-1.15a14.74,14.74,0,0,0,2.82,2.78c1.67,1.22,2.44,2.11,2.61,3s.29,2.34.29,2.34l1-2.32a8.73,8.73,0,0,1,1.64,1.79,17,17,0,0,1,1.33,3.51s.21-1.91.33-1.76,1.14,1.29,1.51,1.61a40.14,40.14,0,0,1,3,2.86,4.51,4.51,0,0,1,.51.91l-.28-1.35s1.35,1,2.31,1.69a16.68,16.68,0,0,1,3.32,2.59c.6.83.26-.61.26-.61s.89.57,1.85,1.3,2.27.16,3.34.63a11.11,11.11,0,0,0,2.43.67l-.58-1.1a7.82,7.82,0,0,1,2.43,1.14c.86.7.1-.39.1-.39a2.73,2.73,0,0,1,1.55.38c.83.46,1.87.56,2,.72l-.5-.82s1.22,1.32,1.48,1.22a.55.55,0,0,1,.33.09c.06-.15.12-.26.19-.29.26-.1.28-1.9.28-1.9s.15.82.18.94c0-.18.67-.95,1-1.85a2.68,2.68,0,0,1,.9-1.32s.17,1.32.32.22a8,8,0,0,1,1-2.48l.31,1.2a10.79,10.79,0,0,0,1.35-2.12c.48-1.07,1.84-1.53,2.05-2.71s.5-2.21.5-2.21.72,1.3.6.28a16.68,16.68,0,0,1,.72-4.15c.27-1.14.58-2.8.58-2.8l.7,1.18a5,5,0,0,1-.24-1,39.4,39.4,0,0,1,.33-4.15c0-.49,0-2,0-2.21s1.43,1.08,1.43,1.08a17.06,17.06,0,0,1-1.38-3.49,9.26,9.26,0,0,1,0-2.43l2.29,1.07s-.87-1.14-1.36-1.93-.52-2-.1-4a14.6,14.6,0,0,0,.22-4l1,.61L244,427s-.28-1.12-.54-2.81a20.32,20.32,0,0,0-.9-3.46l1.52.45a8.2,8.2,0,0,1-.78-.76,3.85,3.85,0,0,1-.4-2.21,4.83,4.83,0,0,0-1.28-2.68s1.84,1,1.53.54-1.4-3.39-1.4-3.39l1.12.92a12.56,12.56,0,0,1-.85-1.81c-.3-.86-1-2.73-1-2.73l1.16,1a20.59,20.59,0,0,1-1.53-2.62,12.49,12.49,0,0,1-.52-1.9l.84.84a9.67,9.67,0,0,0-.44-1.31,12.24,12.24,0,0,0-2.07-2l2.58.73a26.41,26.41,0,0,1-2.24-1.52,31.93,31.93,0,0,1-2.53-2.49,11.86,11.86,0,0,1,1.95.6,12.25,12.25,0,0,1-1.81-2.7,13,13,0,0,0-1.51-2.56s1.64.6,1.55.44-1.36-1.8-1.36-1.8l.86.42a9,9,0,0,1-1.2-1.92c-.34-.88-2.21-1.76-2.21-1.76l2,.09a11.11,11.11,0,0,1-1.27-1.23c-.52-.63-2.85-3.09-2.85-3.09h3.07s-1-.42-1.21-.54a7.51,7.51,0,0,1-2.37-2.07,5.4,5.4,0,0,0-2.39-1.69l2.75-1s-1.54.22-1.86.34-1.71-.22-4.15-1.79a17.92,17.92,0,0,0-4.07-2,11.39,11.39,0,0,1,7.49.44,11.85,11.85,0,0,0,7,1.06c.49-.07.21.71,0,1.3s.33.85.69,1.63a5.19,5.19,0,0,1,.24,1.82c.06-.18.63-1.15.67-.42a13,13,0,0,0,.5,2.17c0,.15,0-1.81,0-1.81a8.45,8.45,0,0,1,.87,1.55,4.28,4.28,0,0,1,.14,1.8s.86-1.27,1.07-.88-.18,2.14-.26,2.9,1-1.55,1.17-1.65a21.71,21.71,0,0,1-.35,2.9c0,.32.89-1.44.89-1.44a8.16,8.16,0,0,0,0,2.09c.17.78,1,1.46,1.34,2.44a22.59,22.59,0,0,1,.56,2.8l.21-2a11.42,11.42,0,0,1,.8,2.23,5.1,5.1,0,0,1,.1,1.69l.86-.77a8,8,0,0,0-.22,2.19,11.91,11.91,0,0,0,1,3l0-1.61s.85,1.65,1.17,2.47a6.68,6.68,0,0,1,.21,2.28s.84-1.3,1-.69a6.61,6.61,0,0,1-.39,2.23s1-1.16,1-1.35-.12,2-.1,2.27.87-1.87.87-1.87a11.62,11.62,0,0,1,.69,1.8c.34,1.1-.56,5.69-.57,6s1.26-3.16,1.26-3.16l-.09,3.08L251,412l0,3,.9,2.67.06-1.91a18.46,18.46,0,0,0,2.92,3.59,6.78,6.78,0,0,1,1.83,3.64l-.33-2.14a22.74,22.74,0,0,1,2.41,2.59,6.37,6.37,0,0,1,.85,3.32l1.26-.55s.33,3.18.37,3.66a18.93,18.93,0,0,0,.58-2.7,7.4,7.4,0,0,0,.25,2c.3,1.08,1.91,1.21,2.79,2.94s-.83,5.39-.69,5.74,3-3.84,2.63-5.73.6-1.93,1.76-.83,2.13,5.59,2.58,6.2,1.66-.92,2.45-.47,1.22,3.71,1.62,5.06,1.91.21,2.56.05,1.82,3.86,1.57,5,1.91.84,2.74,1.08.24,1.24-.4,2.14a4.51,4.51,0,0,0,.15,4.5c1,1.35,1.25-3.43,1.4-3.59s.87,1.14,1,2.44-1.79,3.53-2.22,4.16,3.39-.27,4.71-1.53,1.78-2.92.85-5.42a16.29,16.29,0,0,0-2.41-4.26s1.35-1.18,1.49-1.77-1.27-.74-2.82-1.27A7.14,7.14,0,0,1,281,441a11.57,11.57,0,0,0,1.45-1.19c.05-.17-.15-.44-1.35-.95s-4.69-4-4.69-4a3.11,3.11,0,0,0,.7-1.5c0-.7-.92-.71-1.72-.81s-3-1.75-3.6-2a9.35,9.35,0,0,1-1.74-1.87s1.42.49,1.09.27-2.58-3-2.58-3l3.13,1.27s-.47-.57-1.25-1.47-2.91-3.43-2.91-3.43l3.46,1.59a13.36,13.36,0,0,1-1.91-1.46,24.35,24.35,0,0,1-2.12-3.11L269,420.6l-1.79-2.49,3.45,1.72a23.55,23.55,0,0,0-1.88-2.26,28.65,28.65,0,0,0-4.07-3l2.91.7s-1.84-1-3-1.75a13.53,13.53,0,0,1-2.48-2.63,12.37,12.37,0,0,1,3.41,1.55,9.2,9.2,0,0,0-2.44-2.36c-1.4-.85-3.59-1.92-3.59-1.92L262,408a38.53,38.53,0,0,1-4-2,28.6,28.6,0,0,1-2.66-3s2.27,1,2,.78l-3.4-3.25,2.15.49a13,13,0,0,1-2.5-2.68,10.46,10.46,0,0,1-.92-3.8,10.28,10.28,0,0,0-.46-2.15l1.47,1.73a5.42,5.42,0,0,0-1.13-2.27,9.05,9.05,0,0,1-1.44-2.62l2,1.5a10.37,10.37,0,0,0-.88-1.33c-.46-.57-2.61-2.95-2.61-2.95l2.17.86s-1.33-1-1.74-1.41-1.77-2.36-1.77-2.36l1.59,1.08-2.81-3,2.35.35a14.73,14.73,0,0,1-3.8-2.68,8.17,8.17,0,0,0-4-2l2.49-.71a33,33,0,0,1-4.25-.69c-1.64-.44-2.1-2-4.41-3.64s-7.78-3.17-9.47-3.58-4.66.47-6.68,1.26a60.68,60.68,0,0,1-7.61,1.87c-.87.14-.18-1.26.6-2.88s.49-2.39.61-3.5,4.57-1.33,8-2.54,8.15-1.38,9-2.27,1.77-1.12,4.84-.8,6.91-2,8.29-2,4.31,2.74,4.42,2.86.78,1.8.78,1.8l.09-1.67a5,5,0,0,0,.74,1.45,8.88,8.88,0,0,1,1,2l.12-1.84a17.39,17.39,0,0,1,1.09,1.47c.51.78,1.62,2.68,1.62,2.68l-.21-1.87a10.1,10.1,0,0,0,2.34,3.18,4.26,4.26,0,0,1,1.53,2.12l-.64-2.27s1.45,1.39,2.71,2.44a7.75,7.75,0,0,1,1.91,3.26l1-.83s1,2.5,1.08,2.64.3-2.48.3-2.48,2,2.72,2.15,3a17.13,17.13,0,0,0-.45-2.28l2.33,2.87c.12.15-.94-2.28-1-2.47s1.9,2.29,1.9,2.29l-.69-1.62,1.54.66c1.54.66,5.41,4.49,6.09,4.91s1.84-1,1.84-1L280,383s1.69-2.28,2.38-1.86,3.38,3.76,3.55,3.79a1.55,1.55,0,0,1,2.09.36c1,1.17.36,3.16.74,3.74s1.48-2.68,1.48-2.68a4.87,4.87,0,0,1,2.14,1.41c.63.92-1,3.79-.59,5.07s3.69-3.85,2.08-6.69a12.51,12.51,0,0,0-4.72-4.37s.4-.58.55-.83.32-.75-1.44-.92a20.38,20.38,0,0,1-5-1.75c.05-.16,1.11-1.57-.63-1.19a13.56,13.56,0,0,1-4.62-.27l-.09-1.66a9.45,9.45,0,0,1-3.47.2c-1.76-.26-5.35-3.21-5.35-3.21l1.84.48s-.21-.23-1.17-1.12a4.51,4.51,0,0,1-1.2-2.18l1.38.73a6.76,6.76,0,0,0-1.64-2.33,39.13,39.13,0,0,0-3.93-3.2l2.92.58c-1.93-.89-5.8-4.87-5.8-4.87l3.43.31-7.32-3.4,1.46-.82-2.51-1.1c19.89-4.66,24.6-16.92,26.55-21.7s4.28-5.42,10.79-9.83,15.8-22.57,12.35-29.29S283.78,290.53,271.54,296.27Z" transform="translate(-52 -261.96)"/><path class="cls-6" d="M149.1,411.47l.05.1Z" transform="translate(-52 -261.96)"/><path class="cls-7" d="M206.43,306.13c-.25.94.89,2.64.78,4.73s-2,4.79-2,4.79a17.86,17.86,0,0,0,.69-2c.15-.72,0-2.28-.28-1.43s-1.6,2-2.17,3.66a21,21,0,0,0-.7,6.06c.1,1.12.44-.45.87-.62s-.76,2.72-.81,3.55,1.73-2.83,1.8-3-.09,2.39-.09,2.39l1.12-2.66,0,1.3.74-2.2a3.92,3.92,0,0,0,.44-1.87c0-1-.79,1.5-1,1.82s.13-.62,0-1.3-.53.77-.81,1.16-.67-.4-.18-2.29,1.76-3,2.39-4.22a15,15,0,0,0,1.34-6.37C208.48,305.27,206.67,305.18,206.43,306.13Z" transform="translate(-52 -261.96)"/><path class="cls-7" d="M233,294.68a9.41,9.41,0,0,0-2.74,3s-1.2,1-1.6,1.32.48.5,1.39-.22,2.13-.79,2.61-1.37a10.33,10.33,0,0,1,2.09-2.72C236.07,293.52,234.5,293.74,233,294.68Z" transform="translate(-52 -261.96)"/><path class="cls-7" d="M223.94,300.88c.16.32-1.21.75-1.21.75a4.57,4.57,0,0,0-2.92.59c-1.54.88-2,2-3.25,2.79s-2.69,1.36-2.4,1.4,1.36-.21.94.3l-1,1.27c-.26.73-.22,1.47.59,1.19s1.4-1.36,2.78-1.83,2.83-.84,2.83-.84a7.71,7.71,0,0,1-1.3-.28,5.7,5.7,0,0,0,2.49-.68c1.2-.72.51-1.39,2.15-1.9s3.05-.58,3.43-1.11.52-1.36.05-1.46.93-.55.93-.55a9.92,9.92,0,0,0-2.07-.11C224.83,300.47,223.79,300.56,223.94,300.88Z" transform="translate(-52 -261.96)"/><path class="cls-8" d="M230.21,297.64s-.69.55-1.19,1c.19,0,.33,0,.37,0,.17.21.84-.41,1.22-.78a9.82,9.82,0,0,1,1.51-1c.66-.42.68-1,1-1.68a3,3,0,0,0,.28-.77l-.48.27A9.41,9.41,0,0,0,230.21,297.64Z" transform="translate(-52 -261.96)"/><path class="cls-8" d="M206.43,306.13a1.41,1.41,0,0,0,0,.68,1.77,1.77,0,0,1,.33.35c.36.58,1.17,1.45,1.29.77a13.71,13.71,0,0,0,0-2C207.44,305.33,206.59,305.5,206.43,306.13Z" transform="translate(-52 -261.96)"/><path class="cls-8" d="M205.64,312.19c-.23.84-1.6,2-2.17,3.66a21,21,0,0,0-.7,6.06.8.8,0,0,0,.09.38l0,0h0a2.42,2.42,0,0,1,.63-1.91c.75-.58.2-.88.15-1.62s.55-1.28.33-1.73.23-1.06.72-2.12a28.69,28.69,0,0,0,1-3S205.68,312,205.64,312.19Z" transform="translate(-52 -261.96)"/><path class="cls-8" d="M224.87,300.49c-.62.07-1,.18-.93.39s-1.21.75-1.21.75a4.57,4.57,0,0,0-2.92.59c-1.54.88-2,2-3.25,2.79-.13.09-.27.17-.41.25.15.39.44.89.88.8a4.4,4.4,0,0,0,2-1.58,1.45,1.45,0,0,1,1.53-.51c.51,0,1.07-.66,1.59-1.22s.91-.4,1.71-.42,1.55-.65,1.53-1.2S224.89,300.72,224.87,300.49Z" transform="translate(-52 -261.96)"/><path class="cls-9" d="M234.5,374.59a13.63,13.63,0,0,0-4-2.76c-2.13-.85-4.9-2-7.1-1.57s-4.74,1.2-4.74,1.2c4.79-.75,4.8,0,5,0s-2.13.19-3.29.42,3.47.2,3.7.24-4,.57-4.39.69,3.54.27,3.7.36-.62.24-1.4.35-3,.8-3,.8,1.11-.14,2-.3a10.41,10.41,0,0,1,3,.4c1,.15,6.35,1.62,7.43,2-.79-.34-3.92-1.8-4.12-1.91s4.36.74,4.36.74-3-1.59-3.18-1.79S234.5,374.59,234.5,374.59Z" transform="translate(-52 -261.96)"/><path class="cls-9" d="M231.43,376.44c.14.06.23.1.2.07Z" transform="translate(-52 -261.96)"/><path class="cls-9" d="M220,361.7a33.22,33.22,0,0,1,4.37-2.11c-.76.08-3,.23-3,.23l4.15-1.23-3,.15,3.94-1.21-1.48.13c-.41,0-5.53-.13-7.49,0a13.32,13.32,0,0,0-4.32,1.26l5,.62s-5.17,0-4.95.12,5.29,1.23,4.73,1.23-7.34-.06-6.83.06S217.67,363,220,361.7Z" transform="translate(-52 -261.96)"/><path class="cls-9" d="M224.61,359.54a.61.61,0,0,0-.25,0C224.54,359.57,224.66,359.55,224.61,359.54Z" transform="translate(-52 -261.96)"/><path class="cls-9" d="M243.64,383.91l.11,0Z" transform="translate(-52 -261.96)"/><path class="cls-9" d="M243.64,383.91l.11,0-.11,0c-.51-.14-2.67-.73-2.33-.41s2.64,2.56,2.64,2.56-2.1-1.33-1.7-.6a18.62,18.62,0,0,0,3.39,3.22c1,.79,1.05,3.05,1.05,3.05s.53-1.65.74-1.1.26,4,1.08,5.18,3,4.38,2.69,3.93a30.87,30.87,0,0,1-1.11-3.66s2.24,2.47,2,2.07a44.88,44.88,0,0,1-1.78-4.15,31.33,31.33,0,0,0-1.54-3.18l1.73,1.78s-1.54-3.05-2-3.83-2.37-2.48-2.48-2.75,2.4,1.46,2.4,1.46a11.63,11.63,0,0,1-2.12-3.77c-.29-1.53-3.32-3.5-3.32-3.5l2.11.38-4.57-2.95-2-.76,2.48,2.13-1.82-.43,2.09,1.45-1.71-.15,2.42,1.83s-3.4-1.52-2.07,0A8.38,8.38,0,0,0,243.64,383.91Z" transform="translate(-52 -261.96)"/><path class="cls-9" d="M252.58,361.53l.1.05Z" transform="translate(-52 -261.96)"/><path class="cls-9" d="M249.82,358.1h0C249.74,358.06,249.71,358.05,249.82,358.1Z" transform="translate(-52 -261.96)"/><path class="cls-9" d="M261.17,418.91c-.46-.7-1.43-2.91-1.43-2.91l2,1.56a20.81,20.81,0,0,0-3.27-3.71,32.47,32.47,0,0,0-3.35-2.17l3.64.86a32.94,32.94,0,0,1-3.11-2.19,12.46,12.46,0,0,1-1.46-2.83l0,2s-.7-1.18-1.33-2.2a7.4,7.4,0,0,0-2-2.31c-.73-.47-1.72-1.28-1.72-1.28l2.39,3.17L251.5,408a15.32,15.32,0,0,0,.55,4.13,10.08,10.08,0,0,0,1.73,3.36l-.59-2.17a19.69,19.69,0,0,1,2,3.26,21.22,21.22,0,0,0,3.35,4.24l-1.4-2.67a10,10,0,0,1,2.46,2.39c.79,1.26,2.6,5.16,2.6,5.16l-.53-3.13,1.71,2.05L261.86,421l2.38,2.36S261.62,419.62,261.17,418.91Z" transform="translate(-52 -261.96)"/><path class="cls-9" d="M260.72,364.88c-1.9-1.31,1.45.16,1.71.28s-2.59-2.11-3.35-2.71,1.74,0,1.74,0l-3.3-2c-.9-.54,2.1,0,2.3,0s-3-1.21-4.49-1.87,1.15-.27,1.51-.36-2.76-1.88-2.76-1.88c0-.53-6.4.61-6.4.61s5.08,1.37,5.27,1.52a8.34,8.34,0,0,1-3.12-.34c.5.22,3.51,1.6,4.37,2.13,1,.63-2.94-.43-3.31-.6s4.51,2.36,5,2.82-2.68-.61-3.25-.88c.71.38,4.59,2.59,4.93,2.77a19.69,19.69,0,0,1-3.68-.54c-.35-.13,4.23,3.44,5,4.26s-1.21-1.44-1.68-2.55,3.79,3.43,4.13,4-.86-1.76-.91-2,4.87,3.41,4.87,3.41a36,36,0,0,1-2.93-3c-.72-1,4.1,2.42,4,2.19s-2-2.11-2.21-2.35A23.51,23.51,0,0,0,260.72,364.88Z" transform="translate(-52 -261.96)"/><path class="cls-8" d="M258.9,364.23a7.39,7.39,0,0,1-1.93-2.31c-.45-1-.77-1.12-1.8-1.83S254,358.3,253.64,358a3.84,3.84,0,0,0-2.27,0c.84.25,1.51.45,1.58.5a7.84,7.84,0,0,1-2.69-.21l-.07,0c1,.46,3.28,1.53,4,2,1,.63-2.94-.43-3.31-.6s4.51,2.36,5,2.82-2.68-.61-3.25-.88c.71.38,4.59,2.59,4.93,2.77a19.69,19.69,0,0,1-3.68-.54c-.35-.13,4.23,3.44,5,4.26s-1.21-1.44-1.68-2.55c-.31-.73,1.42,1,2.74,2.39a3.45,3.45,0,0,1-.13-.35c-.12-.68,1.43-.84.5-1.65S259.51,364.83,258.9,364.23Z" transform="translate(-52 -261.96)"/><path class="cls-8" d="M217.38,358.54c.74.46,2.23.4,1.9,1s-1.24.91-1.22,1.69,1.13.92,1.64.4,1.17-1.2,1.14-1.89.85-1.5.85-1.5l-1.63.27C219.1,358.28,216.63,358.07,217.38,358.54Z" transform="translate(-52 -261.96)"/><path class="cls-8" d="M252.58,361.53l.1.05Z" transform="translate(-52 -261.96)"/><path class="cls-8" d="M243.74,382.42a3.59,3.59,0,0,1,.53,1.88c.14,1.21,0,1.23.56,1.92s.65,1,1.35,1.91,1.43,1.25,1.66,1.6.36,1.32.85,2.44a4.38,4.38,0,0,0,1.61,1.91l0-.08a31.33,31.33,0,0,0-1.54-3.18l1.73,1.78s-1.54-3.05-2-3.83-2.37-2.48-2.48-2.75,2.4,1.46,2.4,1.46a11.63,11.63,0,0,1-2.12-3.77c-.29-1.53-3.32-3.5-3.32-3.5l2.11.38-2.67-1.73c0,.13-.06.23-.08.3-.13.54-1.17,1.14-.24,1.85S243.44,381.9,243.74,382.42Z" transform="translate(-52 -261.96)"/><path class="cls-8" d="M225.72,370.29c-1-.11-1.19.27-.85.6a7,7,0,0,0,.88.68l-1.27.34a9.07,9.07,0,0,1,1.58.54c-.17,0-2.23.54-2,.64a4,4,0,0,0,2.14.51c.76-.19.47-1.13,1.12-1.09a13.41,13.41,0,0,1,2.3.26,9.11,9.11,0,0,0,2.26-.23,9.3,9.3,0,0,0-1.41-.71A24.43,24.43,0,0,0,225.72,370.29Z" transform="translate(-52 -261.96)"/><path class="cls-8" d="M255.66,410.35a12.46,12.46,0,0,1-1.46-2.83l0,2s-.7-1.18-1.33-2.2c-.23-.35-.45-.69-.68-1a17.17,17.17,0,0,1,1.08,3.07c.12,1.16-.21,2.16.91,3.09s1.83.22,2.13,1.71a3.62,3.62,0,0,0,1.65,2.57,30.1,30.1,0,0,1,2.31,2.17,15.57,15.57,0,0,0-.16-2.06l-.4-.88a1.63,1.63,0,0,1-.66-1.63,7,7,0,0,0-.6-.52,32.47,32.47,0,0,0-3.35-2.17l3.64.86A32.94,32.94,0,0,1,255.66,410.35Z" transform="translate(-52 -261.96)"/><path class="cls-8" d="M279.91,300.49c-7.87,4-13.67,4.58-16.37,7.26-1.63,1.62-4.69,5.23-8.44,9,5.91.44,16.63-3.75,22.08-7.75a36.41,36.41,0,0,1,14.14-6h0L285,297.17A27.15,27.15,0,0,1,279.91,300.49Z" transform="translate(-52 -261.96)"/><path class="cls-8" d="M233,331.12c-3.51.91-14.51,5.8-17.91,8.36l-.64.45c3.76-.65,10.06-1.73,14.25-2.63,6.23-1.33,10.5-.9,15.87-1.59,1.08-.14,2.34-.28,3.7-.42,5.06-2,11-6.74,17.58-11.33a26.74,26.74,0,0,1-10.77.42c-2.55-.48-7.39.26-10.44,1C239,329.12,236.07,330.31,233,331.12Z" transform="translate(-52 -261.96)"/><path class="cls-8" d="M236.25,328.52a37.93,37.93,0,0,0,4-1.83c3-1.73,9.61-6.23,13.33-10.24s8.63-9.87,15.88-12.67c5.47-2.11,11.4-5.3,14.33-7.76l-1.35-1.23a108.14,108.14,0,0,0-23,9.84c-6.94,4-18.3,12-28.36,19.23A9.23,9.23,0,0,1,236.25,328.52Z" transform="translate(-52 -261.96)"/><path class="cls-8" d="M224.44,333c2.49-.93,7.19-2.59,11-4.12-1-1.71-3.33-3.52-4.92-4.61-11,8-20.37,15-20.37,15S220.63,334.37,224.44,333Z" transform="translate(-52 -261.96)"/><path class="cls-8" d="M290.68,301.83l.62,1.1Z" transform="translate(-52 -261.96)"/><path class="cls-8" d="M211,344.06l0,0a9.48,9.48,0,0,1,2,0,40.28,40.28,0,0,0,10.53-.17,29.46,29.46,0,0,0,9-3.35,53,53,0,0,1,6.64-3.12s-9.52.27-15.37,2.09a120.44,120.44,0,0,1-13.15,3.06c-.28.24,1.29,1.14,1.29,1.14S210.54,343.62,211,344.06Z" transform="translate(-52 -261.96)"/><path class="cls-8" d="M285.54,293.91c-.79.2-1.6.43-2.44.67.44.22.93.46,1.43.73A4,4,0,0,0,285.54,293.91Z" transform="translate(-52 -261.96)"/><path class="cls-8" d="M289.89,300.44Z" transform="translate(-52 -261.96)"/><path class="cls-8" d="M289.89,300.44l.21.37Z" transform="translate(-52 -261.96)"/><path class="cls-8" d="M290.51,301.54c.06.1.11.2.17.29C290.62,301.72,290.57,301.63,290.51,301.54Z" transform="translate(-52 -261.96)"/><path class="cls-8" d="M290.1,300.81l.41.73Z" transform="translate(-52 -261.96)"/><path class="cls-8" d="M296.5,292.19a32.48,32.48,0,0,0-8.16,1,11.83,11.83,0,0,1-2.25,3,14.64,14.64,0,0,1,2.56,1.87,23.24,23.24,0,0,1,3.45,4.69c1.53-.33,3.1-.63,4.74-.94,4.49-.83,6.82-.74,8-.54a14.67,14.67,0,0,0,.73-3.13C305.86,294.37,301.68,292.59,296.5,292.19Z" transform="translate(-52 -261.96)"/><path class="cls-8" d="M267,338.45l-.1,0Z" transform="translate(-52 -261.96)"/><polygon class="cls-8" points="226.28 70.5 226.46 70.47 226.37 70.42 226.28 70.5"/><path class="cls-8" d="M276.51,332.71a6.61,6.61,0,0,0-3.37-.55c-1.18.26-6.92,2.54-10.79,2.84-3.41.26-11.73.9-15.77,1.44-1.26.36-2.38.63-1.71.27-3,.64-6.3,2.41-10.3,4.73-4.15,2.42-8.8,4.35-13.17,4.14a70.1,70.1,0,0,0-10.19.13c-.06.48-.15,1-.22,1.31a6.55,6.55,0,0,0,.2,2.18,25.92,25.92,0,0,0,6.72,1.45A41.19,41.19,0,0,0,231,347.73c3.78-1.64,16.78-6.22,22.39-6.75,4.44-.43,13.85.06,17.61.28,1.27-2.09,2.19-3.77,2.19-3.77l-6.2,1-.1,0,.1,0a9.93,9.93,0,0,0,3.88-1.89,14.87,14.87,0,0,1,4.4-2.27s-2.74-.89-2.24-1C273.31,333.19,275.07,332.93,276.51,332.71Z" transform="translate(-52 -261.96)"/><path class="cls-8" d="M267.82,315c-7.86,3.6-13.4,2.35-13.4,2.35a62.37,62.37,0,0,1-7.4,6.3l-1.3.92c3.07-.83,9.1-2.19,12.06-1.14,2.74,1,6.7.45,8.91-.1a72.4,72.4,0,0,1,13.5-7.7c9-3.67,15-2.7,17.56-1.93,2.61-2.66,5.17-7.36,6.61-11.19-7.09-1.27-16.35,2.17-19.83,3.08S275.68,311.43,267.82,315Z" transform="translate(-52 -261.96)"/><path class="cls-8" d="M258.85,330.53a22.86,22.86,0,0,1-7.56,4.47c4.82-.46,10.11-.95,13-1.56,4.35-.92,6.44-2.36,9.53-2.92,1.45-.27,3.12-.43,4.48-.54.25-.31.35-.58.11-.73-.73-.48-4.26-2-4.26-2a18.42,18.42,0,0,0,3.72.76c1.49.05,5-1.38,5-1.38l-5.72-1a17,17,0,0,0,4.14.1c2.37-.23,5.82-2.56,5.82-2.56l-2.93-.76s4.48.66,5.26-1,3.42-3.52,7.48-7q.26-.21.51-.45c-6.35-.76-10.34.66-17.16,2.89C272.91,319.32,263,326.67,258.85,330.53Z" transform="translate(-52 -261.96)"/><path class="cls-8" d="M258.11,341.55a40.72,40.72,0,0,0-9.13,1.19c-8.18,2.31-11.72,3.45-11.72,3.45a30.6,30.6,0,0,1,9.67,1.41A22.94,22.94,0,0,0,258.11,341.55Z" transform="translate(-52 -261.96)"/><path class="cls-8" d="M247.35,347.73a28.48,28.48,0,0,1,8.86,4.64c5.43-2.35,12.51-8.13,14.33-10.43a107.94,107.94,0,0,0-11.36-.42A20.26,20.26,0,0,1,247.35,347.73Z" transform="translate(-52 -261.96)"/><path class="cls-8" d="M226.73,351.14a93.94,93.94,0,0,1-11.5,1,46.35,46.35,0,0,0-5.26.57,2.18,2.18,0,0,1,.21.49c.08.3-.56-.09-1-.4l-.22,0c.34.56,1,1.66,1.16,1.92s-1.36-.17-1.36-.17.31,1.58,1.18,1.94,4.59-.64,7-1a24.29,24.29,0,0,1,9,.75c2.5.8,9.93.22,11.39.15C235.71,354.74,231.13,350.55,226.73,351.14Z" transform="translate(-52 -261.96)"/><path class="cls-8" d="M234.68,347.44l-6.09,2.48s6.15,1.37,9,6.49c1.59-.16,10.42-1.87,16-3.17C251.58,350.9,246.12,346.52,234.68,347.44Z" transform="translate(-52 -261.96)"/><path class="cls-8" d="M210,347.78s0,.45.06,1l1,.34Z" transform="translate(-52 -261.96)"/><path class="cls-10" d="M258.11,341.55a40.72,40.72,0,0,0-9.13,1.19c-8.18,2.31-11.72,3.45-11.72,3.45a30.6,30.6,0,0,1,9.67,1.41A22.94,22.94,0,0,0,258.11,341.55Z" transform="translate(-52 -261.96)"/><path class="cls-10" d="M226.73,351.14c-4.43.59-7.86.87-10.11,1h0s-1.82.91-1.22,1.85,2.64-.15,4.77-.29,3.4-.24,5.5-.23,3.14.3,5.48.22a10,10,0,0,0,2.41-.4C231.56,351.91,229.12,350.82,226.73,351.14Z" transform="translate(-52 -261.96)"/><path class="cls-10" d="M234.68,347.44l-6.09,2.48a16.43,16.43,0,0,1,6,3c1.39-.45,3-1.05,5-1.64,3.92-1.12,4,.39,8.18-.63a11.74,11.74,0,0,0,1.79-.59C246.52,348.32,241.74,346.87,234.68,347.44Z" transform="translate(-52 -261.96)"/><path class="cls-10" d="M259.18,341.52a20.26,20.26,0,0,1-11.83,6.21,29.11,29.11,0,0,1,3.8,1.51,19.4,19.4,0,0,0,2.79-2.78c1.07-.92,5.85-1.77,7.19-2.61,1.1-.68-.19-1.84-1-2.34Z" transform="translate(-52 -261.96)"/><path class="cls-10" d="M229.74,324.8c-4.66,3.37-9,6.54-12.38,9.06a5.73,5.73,0,0,0,2.78-.07c2.12-.77,4.7-2.69,8.29-3.68s4.18-1.81,4.15-3.11C232.56,326.09,230.79,325.23,229.74,324.8Z" transform="translate(-52 -261.96)"/><path class="cls-10" d="M259.4,304.63c-6.85,4-18,11.76-27.94,18.93a35.07,35.07,0,0,1,3.32,1.52c.58.41,3.1.55,5.19.09s6.4-5.63,9.3-8.55,3.21-1.73,4.66-3a48,48,0,0,0,4.39-5c1.88-2.23,9-5,10.82-6.31s6.69-2.78,8.55-3.35c1.62-.5,3.16-2.7,3.67-3.89A108,108,0,0,0,259.4,304.63Z" transform="translate(-52 -261.96)"/><path class="cls-10" d="M296.5,292.19a29.57,29.57,0,0,0-7.19.83s-1.85,2.44-.65,3.34,2.73,1.43,3,2.26.8,2.22,1.69,2.07,3.54-1.76,5.81-2,3.86.31,4.78-.63a4.5,4.5,0,0,0,.9-2.67C303.4,293.47,300.21,292.47,296.5,292.19Z" transform="translate(-52 -261.96)"/><path class="cls-10" d="M284.05,297.94a30.22,30.22,0,0,1-4.14,2.55c-7.87,4-13.67,4.58-16.37,7.26-1,1-2.44,2.62-4.26,4.59,0,1.11.86,1.79,2.41,1.38,2.37-.62,5-3.43,7.85-4.34s4.33-.41,6.74-1.78,6.26-4.65,7.83-4.87,2.74-2.71,1.83-3.62A5.81,5.81,0,0,0,284.05,297.94Z" transform="translate(-52 -261.96)"/><path class="cls-10" d="M298.87,302.35h0c-5.79.45-11.71,2.58-14.34,3.27-3.56.94-8.85,5.81-16.71,9.41s-13.4,2.35-13.4,2.35c-.75.73-1.52,1.46-2.31,2.18,0,.65.86,1.16,2.21,1.5,2,.5,6.95-.88,8.91-.72s3.1.8,4-.12a7,7,0,0,1,3-2.41c2-1,4.78-2,6.15-2.47s6.31-2.43,9.19-3.3,5.27-.72,7.66-1.16,8.08-3.94,7.57-6.13S298.92,302.36,298.87,302.35Z" transform="translate(-52 -261.96)"/><path class="cls-10" d="M259.19,324.73a24.12,24.12,0,0,1-4.13-.35c-2.55-.48-7.39.26-10.44,1-5.6,3.77-8.55,5-11.64,5.77l-.2.05c-5.79,2.6-12.74,5.64-12.17,5.72.92.13,3.24-.32,6.81-1.61s3.57-1.18,7.08-.69,5.24-.66,9.49-1.91,4.69-1.33,5.12-1.2,2.42-.74,3.67-.93,1.7-1,2.61-2.18,3.81-1.66,4.94-2.43C260.89,325.54,260.2,325.1,259.19,324.73Z" transform="translate(-52 -261.96)"/><path class="cls-10" d="M289.67,314.22a74.74,74.74,0,0,0-9.37,2.69c-7.39,2.41-17.3,9.76-21.45,13.62-.29.27-.58.53-.88.77a6,6,0,0,0,.9,1c.57.51,2.24-.43,3.88-1.59s2.93-.26,5.49-1.1,2.24-.33,3.55-1.37a10.45,10.45,0,0,1,2.9-1.56s-1.66-.38-2-.44,3.22-1.48,4.62-1.78,2.93-.64,3.18-1.08a8.52,8.52,0,0,1,3.59-3.09c2.31-1.13,5.63-2,6.63-2.7S291.74,314.2,289.67,314.22Z" transform="translate(-52 -261.96)"/><path class="cls-10" d="M246.58,336.44c-1.26.36-2.38.63-1.71.27-3,.64-6.3,2.41-10.3,4.73-4.15,2.42-8.8,4.35-13.17,4.14-1.87-.08-4-.14-6-.11-2.19.41-1,2.91,1.24,3.17a22.27,22.27,0,0,0,8-.87c2.18-.75,5.67-2.24,7-2.25a11.4,11.4,0,0,0,4.9-1.16c2-.94,5.45-2.69,7.47-3s3.23-.71,5.71-.89,6.36-1.68,8.17-1.16a14.39,14.39,0,0,0,5.52.3c1-.24.93-1.77,2.14-2.43s2.58-1.05,3.6-1.59c.74-.39,1.32-1.87,1.59-2.68a39.89,39.89,0,0,1-8.37,2.07C258.94,335.26,250.62,335.9,246.58,336.44Z" transform="translate(-52 -261.96)"/><path class="cls-9" d="M175.62,334.83c.1,1.15-.19,3.5-.47,2A15.46,15.46,0,0,0,174,333c-.66-1.63.42,4.11-.22,2.92s-2.51-5.14-2.08-4.11,2.54,6,1.56,4.27-3.12-5.46-3.12-5.46a44,44,0,0,1,1.65,4.43c-.25-.16-1.38-.79-1.38-.79s1.46,2.67,1.35,2.53-2.6-2.43-2.23-1.72,2,3.1,2,3.46-2.54-2.29-2.44-2.11a9,9,0,0,1,1.86,3.4,24.4,24.4,0,0,0,2,5.21c.31.32-.95-4-.61-3.19s1.89,4.27,1.83,3.95-1.54-5.32-1-4.25,3.34,6.1,3.19,5.56-1.68-5.45-1.68-5.45,3.42,3.36,3,2.62-2.13-3.05-2-4.4,1-3.73.76-4.63S175.51,333.68,175.62,334.83Z" transform="translate(-52 -261.96)"/><path class="cls-9" d="M171.25,350l-.19,4.41a12.17,12.17,0,0,1-1.63-4.53c-.09-2-.28-4.54-.28-4.54l-1.22,5.56s-.47-2.33-1.06-4.49a39.91,39.91,0,0,1-1.19-4.2,15.62,15.62,0,0,0-.32,4.27c.25.79,1.29,3.66,1.29,3.66l-1.28-1.27s0,5.93,1.69,9.47l.13-2.69a38.21,38.21,0,0,0,3.27,4.53,26.52,26.52,0,0,0,3.93,3.83l-2.69-4.75a57.74,57.74,0,0,0,5.65,3.67,16.15,16.15,0,0,0,4.13,1.49s-6-4.21-7.48-7A49.66,49.66,0,0,1,171.25,350Z" transform="translate(-52 -261.96)"/><path class="cls-9" d="M197.6,341.31s-2.86-5.5-3.16-6.45.21-2.47-2.08-5.55-4-4.7-2.9-3.54,3.21,8.32,2.27,6.68-4.82-7.58-4.26-6.28,3.48,7.58,1.62,4.84-5-6.3-5.86-7.42,4.31,7.2,3.23,6.49-6.33-5.93-5-4.31,5.45,5.38,6.19,8.24a48.09,48.09,0,0,1,1.16,5.08,43.36,43.36,0,0,0-1.86-4.18c0,.42.45,2.91.17,2.19s-2.55-5.49-2.55-5.49a44.6,44.6,0,0,0,1.63,6.92c1.41,4.74,1.7,9.47,2.42,10.07s-.19-5.9,0-5.41,2.59,4.35,2.95,5.28,1,5.2,1.27,5.36-.42-9.52.48-7.35,2,6.9,1.86,6.26-2.78-11-.94-7.69,4.43,10.05,3.17,6-1.25-5.31-2.77-10.51S197.6,341.31,197.6,341.31Z" transform="translate(-52 -261.96)"/><path class="cls-9" d="M202.33,336.41s-1.15-2.83-1.5-3.57a15.72,15.72,0,0,0-3.1-3,40.81,40.81,0,0,1,1.93,3.91c1,2,2.24,4,2.24,4l-4.65-3.3s1.58,2,2.85,3.56a12.21,12.21,0,0,1,1.84,4.44l-3.12-3.14a49.62,49.62,0,0,1,3,7.35c.8,3-.84,10.2-.84,10.2a15.71,15.71,0,0,0,2.06-3.87,57.07,57.07,0,0,0,1.71-6.51l1.2,5.32a26.81,26.81,0,0,0,.34-5.48,37.79,37.79,0,0,0-.61-5.55l1.9,1.91c-1.1-3.79-5.11-8.15-5.11-8.15Z" transform="translate(-52 -261.96)"/><path class="cls-8" d="M174.6,338.12c0-.28-.38-1.34-.38-1.34s-.4.47-.55,0-.87-.1-.73.38l-.8-.05a4.06,4.06,0,0,0-.25.41c-.2.34.53.57.8,1.32s-.41.72-.87,1.5.73.42.85.35a11.64,11.64,0,0,1,1-.87c.13,0,1.1.57,1.19.26a6.7,6.7,0,0,0,.5-1.65C175.33,338.05,174.63,338.4,174.6,338.12Z" transform="translate(-52 -261.96)"/><path class="cls-8" d="M169.38,353.13a20.68,20.68,0,0,1-.66-2c-.29-.55-.69.31-1.15.41s-.71-.43-1-.74-1.15.15-1.09.91a27.43,27.43,0,0,0,.5,3.42,3.66,3.66,0,0,0,1.09-.76c.45-.39,1.05.18,1.69,1s.66,1.65,1.12,2.27.51,0,.74-.53,1.24.76,2,1.33.67-.46.29-1.4a3.68,3.68,0,0,0-2.07-2.22C169.84,354.44,169.8,353.85,169.38,353.13Z" transform="translate(-52 -261.96)"/><path class="cls-8" d="M202.83,338.26s-1.27.15-1.21.68,1.24.88,1.76,2.36-.69,2.14-1,3.27a3.88,3.88,0,0,0,.64,2.83c.3.59.47-1.2.72-2.31s1,.33,1.14.14a6.36,6.36,0,0,0-.13-3.72,7,7,0,0,1-.62-2.6c-.16-1.28,0-1.35-.84-2S203.22,337.43,202.83,338.26Z" transform="translate(-52 -261.96)"/><path class="cls-8" d="M191.32,333.66c-.46-.58-.86-1.06-1.13-1a1,1,0,0,1-1.09-.3s-.58-.22-.74,0,.76,1,1.19,1.56-.17.53-.1,1.5.73.78,1.5,1.87,0,1.4-.44,2-1.81.53-1.94,1.09.71.7,1.39,1.46a14.38,14.38,0,0,1,1.43,2.17c.42.68.2-.83.37-2.33s1,.46,1.58,1.14.54.42.32-1.07a22.66,22.66,0,0,0-.71-2.65c-.27-1.25.75-1.31.15-2.17s.07-.8.21-1.3-.24-2.09-.78-2.22S191.78,334.23,191.32,333.66Z" transform="translate(-52 -261.96)"/><path class="cls-8" d="M78.26,385.16a1.29,1.29,0,0,0,0-.19A1.52,1.52,0,0,1,78.26,385.16Z" transform="translate(-52 -261.96)"/><path class="cls-8" d="M77.63,382.37Z" transform="translate(-52 -261.96)"/><path class="cls-8" d="M77.91,383.6l-.11-.5C77.83,383.26,77.87,383.43,77.91,383.6Z" transform="translate(-52 -261.96)"/><path class="cls-8" d="M77.8,383.1l-.15-.65C77.68,382.6,77.73,382.81,77.8,383.1Z" transform="translate(-52 -261.96)"/><path class="cls-8" d="M77.65,382.45s0-.06,0-.08S77.64,382.42,77.65,382.45Z" transform="translate(-52 -261.96)"/><path class="cls-8" d="M78.22,385c-.06-.29-.19-.83-.31-1.37C78,384,78.09,384.41,78.22,385Z" transform="translate(-52 -261.96)"/><path class="cls-8" d="M168.61,363.76l.14,1.73c.2-.34.37-.65.52-.93C168.89,364.12,168.61,363.76,168.61,363.76Z" transform="translate(-52 -261.96)"/><path class="cls-8" d="M92.77,380.14c6.72-.7,17.48-4.79,21.56-9.1-5.29-.24-10-.86-12.27-1-3.8-.17-8.46,3.32-17,5.62a27,27,0,0,1-6,1l-.79,8.49,0,0A36.35,36.35,0,0,1,92.77,380.14Z" transform="translate(-52 -261.96)"/><path class="cls-8" d="M140,375.68a52.93,52.93,0,0,1,7-2.14,29.45,29.45,0,0,0,8.92-3.57,40.16,40.16,0,0,0,7.91-7,9.94,9.94,0,0,1,1.51-1.3v0c.06-.65-1,.37-1,.37s.56-1.72.2-1.71a123.24,123.24,0,0,1-11.8,6.57C147.24,369.49,140,375.68,140,375.68Z" transform="translate(-52 -261.96)"/><path class="cls-8" d="M159.28,361c-4.23.39-15.67,4.16-18.88,5.84-2.83,1.48-5.82,2.58-12.5,3.55-2.74,1.53-6.82,4.23-8.39,6.3a26.57,26.57,0,0,1-8.26,6.92c8-1,15.57-1.48,20.64-3.41,1.1-.82,2.13-1.56,3-2.18,4.44-3.1,7.31-6.29,12.82-9.48,3.71-2.15,9.11-5.58,12.32-7.63C159.81,361,159.55,361,159.28,361Z" transform="translate(-52 -261.96)"/><path class="cls-8" d="M95,371.09c7.25-2.8,14.82-1.76,20.27-1.29s13.36-.62,16.75-1.37a37.59,37.59,0,0,0,4.16-1.3,9.35,9.35,0,0,1,.73-7c-12.32,1.39-26.06,3.15-33.92,4.81a108.76,108.76,0,0,0-23.65,8.17L79.21,375C83,374.83,89.57,373.2,95,371.09Z" transform="translate(-52 -261.96)"/><path class="cls-8" d="M148,362.48c3.77-1.51,14.81-5,14.81-5s-11.64,1.06-25.16,2.58c-.45,1.87-1,4.81-.55,6.72C140.9,365.4,145.5,363.48,148,362.48Z" transform="translate(-52 -261.96)"/><path class="cls-8" d="M140.91,388.81A20.22,20.22,0,0,1,128,392.16a112.32,112.32,0,0,0-8.13,7.94c2.89.49,12,0,17.62-1.89A28.7,28.7,0,0,1,140.91,388.81Z" transform="translate(-52 -261.96)"/><path class="cls-8" d="M141.14,388.43a30.47,30.47,0,0,1,6.21-7.53s-3.39,1.53-11,5.31a40.72,40.72,0,0,0-7.56,5.25A22.79,22.79,0,0,0,141.14,388.43Z" transform="translate(-52 -261.96)"/><path class="cls-8" d="M78.72,373.47c-.78.38-1.53.76-2.26,1.14a4,4,0,0,0,1.7.36C78.35,374.43,78.54,373.92,78.72,373.47Z" transform="translate(-52 -261.96)"/><path class="cls-8" d="M153,377.83a41.44,41.44,0,0,0,11.65-6.64,26,26,0,0,0,4-5.58,6.86,6.86,0,0,0-1.32-1.75c-.29-.22-.68-.51-1-.83a67.62,67.62,0,0,0-7.64,6.76c-3.1,3.09-7.84,4.79-12.54,5.78-4.52,1-8.16,1.87-10.8,3.42.74-.19-.28.36-1.46.94-3.34,2.32-9.94,7.44-12.64,9.53-3.07,2.38-8.85,4.55-9.9,5.15a6.51,6.51,0,0,0-2.12,2.67c1.21-.81,2.69-1.79,3-1.93.46-.24-1,2.26-1,2.26a14.61,14.61,0,0,1,4.77-1.28,9.83,9.83,0,0,0,4.15-1.2l.09-.05-.09.05-5.24,3.45s1.82.63,4.16,1.33c2.63-2.69,9.28-9.38,12.84-12C136.42,384.49,149.13,379.14,153,377.83Z" transform="translate(-52 -261.96)"/><path class="cls-8" d="M173.2,369c-.07-.3-.31-1.56-.44-2.2l-.18.14c-.12.53-.33,1.25-.48,1a3.8,3.8,0,0,1-.17-.51,47.21,47.21,0,0,0-4.27,3.11,94.11,94.11,0,0,1-9.19,7c-3.64,2.51-4.22,8.7-4.31,11.05,1.14-.93,7-5.49,8.34-7.77a24.29,24.29,0,0,1,6.15-6.59c2-1.41,5.46-3.17,5.86-4s-.43-2.22-.43-2.22S173.29,369.37,173.2,369Z" transform="translate(-52 -261.96)"/><path class="cls-8" d="M156.28,377.83l-6.18,2.26c-9.09,7-10.19,13.91-10.15,17,5-2.8,12.72-7.46,14-8.41C152.64,383,156.28,377.83,156.28,377.83Z" transform="translate(-52 -261.96)"/><path class="cls-8" d="M77.55,385.57a22.87,22.87,0,0,1-.6-5.8,14.85,14.85,0,0,1,.64-3.11,11.44,11.44,0,0,1-3.65-.68,32.24,32.24,0,0,0-6.75,4.72c-3.57,3.77-5.47,7.9-2.69,10.48A14.78,14.78,0,0,0,67.14,393c.71-.93,2.38-2.56,6.26-4.95C74.83,387.18,76.2,386.35,77.55,385.57Z" transform="translate(-52 -261.96)"/><path class="cls-8" d="M110.21,383.76c2-1.08,5.31-3.34,6.68-5.91,1.47-2.77,6.86-5.82,9.69-7.27l-1.58.2a62.92,62.92,0,0,1-9.71.3s-3.27,4.65-11.51,7.26-15.43,2.56-18.69,4.27-12.37,5.33-16.76,11c3.64,1.86,8.69,3.62,12.41,3.84,1.37-2.28,5.15-7,14.3-10.36A71.5,71.5,0,0,1,110.21,383.76Z" transform="translate(-52 -261.96)"/><path class="cls-8" d="M120.14,395.13l.09-.05Z" transform="translate(-52 -261.96)"/><path class="cls-8" d="M118.79,389.6c2.53-1.48,6.78-4.67,10.65-7.57a22.61,22.61,0,0,1-8.6,1.77c-5.67-.07-17.94,1.14-25,4.33-6.55,2.93-10.46,4.55-14.65,9.38h.68c5.32-.17,8.55-.54,10.22.14s4.55-2.82,4.55-2.82l-1.66,2.52s4.12-.58,6-2a16.62,16.62,0,0,0,3-2.86l-3.56,4.59s3.59-1.33,4.66-2.37a17.87,17.87,0,0,0,2.25-3.07s-1.59,3.51-1.82,4.35c-.07.27.19.41.58.47,1.08-.84,2.43-1.83,3.68-2.62C112.43,392.18,114.93,391.84,118.79,389.6Z" transform="translate(-52 -261.96)"/><polygon class="cls-8" points="55.59 136.42 55.74 136.32 55.63 136.32 55.59 136.42"/><path class="cls-10" d="M141.14,388.43a30.47,30.47,0,0,1,6.21-7.53s-3.39,1.53-11,5.31a40.72,40.72,0,0,0-7.56,5.25A22.79,22.79,0,0,0,141.14,388.43Z" transform="translate(-52 -261.96)"/><path class="cls-10" d="M128,392.16l-.72.64c-.25.91-.43,2.63.84,2.4,1.55-.28,5.67-2.87,7.08-2.9a19.24,19.24,0,0,0,3.93.19,32.32,32.32,0,0,1,1.8-3.68A20.22,20.22,0,0,1,128,392.16Z" transform="translate(-52 -261.96)"/><path class="cls-10" d="M166.61,371.4h0c-1.72,1.45-4.46,3.54-8.14,6.09-2,1.36-3.05,3.81-3.64,6.14a9.69,9.69,0,0,0,2.06-1.32c1.79-1.51,2.38-2.42,3.92-3.84s2.56-2.2,4.22-3.53,3.91-1.89,3.73-3S166.61,371.4,166.61,371.4Z" transform="translate(-52 -261.96)"/><path class="cls-10" d="M156.28,377.83l-6.18,2.26c-5.61,4.32-8.18,8.61-9.31,12a10.08,10.08,0,0,0,1.72-.77c3.77-2,2.83-3.23,6.49-5,1.92-.94,3.5-1.57,4.83-2.17A16.44,16.44,0,0,1,156.28,377.83Z" transform="translate(-52 -261.96)"/><path class="cls-10" d="M80.37,372.68c1.17.54,3.79,1.14,5.32.42,1.77-.83,6.42-3,8.59-3.27s9.36-3,12.26-2.59a49.11,49.11,0,0,0,6.57.72c1.94,0,1.37-1.12,5.48-.9s10.77,1.14,12.63.08,3.63-2.86,3.79-3.55a35.59,35.59,0,0,1,1.43-3.36c-12.19,1.38-25.66,3.11-33.41,4.75A108,108,0,0,0,80.37,372.68Z" transform="translate(-52 -261.96)"/><path class="cls-10" d="M137.92,363.53c.86,1,1.84,1.19,5.17-.48s6.52-2,8.61-2.84a5.65,5.65,0,0,0,2.1-1.82c-4.2.42-9.53,1-15.25,1.6C138.06,361,137.33,362.84,137.92,363.53Z" transform="translate(-52 -261.96)"/><path class="cls-10" d="M73.08,376.48a29.4,29.4,0,0,0-5.89,4.22c-2.55,2.7-4.25,5.58-4,7.94A4.44,4.44,0,0,0,65.66,390c1.3.08,2.11-1.4,4-2.75s4.88-1.93,5.64-2.42.27-1.9-.13-2.67.39-2.19.67-3.66S73.08,376.48,73.08,376.48Z" transform="translate(-52 -261.96)"/><path class="cls-10" d="M102.06,370.08c-3.8-.17-8.46,3.32-17,5.62a28.61,28.61,0,0,1-4.77.89,5.72,5.72,0,0,0-.61,2.14c-.07,1.29,2.47,2.35,3.78,1.45s6.37-1,9.07-1.65,3.46-2,6.2-3.22,6.55-.92,8.72-2.05c1.43-.74,1.64-1.86.86-2.64C105.63,370.38,103.42,370.14,102.06,370.08Z" transform="translate(-52 -261.96)"/><path class="cls-10" d="M115.29,371.08s-3.27,4.65-11.51,7.26-15.43,2.56-18.69,4.27c-2.42,1.25-8.23,3.65-12.82,7.2h0s-.83,1.1.24,3,7.67.73,9.73-.55,3.72-3,6.44-4.29,7.69-3.16,9-3.72,4-1.66,6.21-2.31a6.91,6.91,0,0,1,3.81-.2c1.27.09,1.69-1.14,3-2.58s5.94-3.75,7.08-5.45c.77-1.16,1.09-2.14.63-2.61C117.39,371.14,116.33,371.12,115.29,371.08Z" transform="translate(-52 -261.96)"/><path class="cls-10" d="M140.4,366.85c-2.83,1.48-5.82,2.58-12.5,3.55-2.74,1.53-6.82,4.23-8.39,6.3a24.71,24.71,0,0,1-2.82,3c-.5.95-.71,1.74,0,1.65,1.35-.18,3.82-1.77,5.29-1.51s2.34.56,3.4-.14,3.11-1.4,3.34-1.78.61-.62,4.6-2.55,6.05-2.24,8.32-5,2.19-2.79,5.7-4.24,5.53-2.67,6.13-3.39c.36-.44-6.83,2-12.86,3.94Z" transform="translate(-52 -261.96)"/><path class="cls-10" d="M95.8,388.13a73.85,73.85,0,0,0-8.75,4.3c-1.54,1.37.3,3.33,1.53,3.2s4.26-1.74,6.73-2.45a8.51,8.51,0,0,1,4.73-.13c.49.16,1.85-.61,3.08-1.33s4.84-2.07,4.62-1.78-1.2,1.67-1.2,1.67a10.35,10.35,0,0,1,3.2-.79c1.66-.11,1.08-.27,3.54-1.37s2.82-2.64,4.81-2.88,3.86-.66,4-1.43a6.77,6.77,0,0,0,0-1.36c-.38,0-.78,0-1.17,0C115.17,383.73,102.9,384.94,95.8,388.13Z" transform="translate(-52 -261.96)"/><path class="cls-10" d="M163.07,365.66c-1.48,1.31-3,2.81-4.38,4.13-3.1,3.09-7.84,4.79-12.54,5.78-4.52,1-8.16,1.87-10.8,3.42.74-.19-.28.36-1.46.94-3.34,2.32-9.94,7.44-12.64,9.53a39.33,39.33,0,0,1-7.59,4.09c.74.42,2.17,1.13,3,.92,1.12-.28,2.39-.92,3.73-1.24s2.32.85,3.22.36a14.15,14.15,0,0,0,3.88-3.93c1-1.6,4.87-3.09,6.83-4.63s3.15-2,4.84-3.18,5.38-2.13,7.53-2.81a11.51,11.51,0,0,0,4.41-2.43c.95-.85,4.55-2.1,6.66-3a22,22,0,0,0,6.54-4.76C165.76,367.15,165,364.49,163.07,365.66Z" transform="translate(-52 -261.96)"/><path class="cls-11" d="M160.13,309.17c-.32.2-.7.24-.4.72s-.17.93.3,1.17.41.54.94.41.49-1.63.49-1.63C161.28,309.84,160.45,309,160.13,309.17Z" transform="translate(-52 -261.96)"/><path class="cls-11" d="M156.41,306.41c-.52,0-.68,1.25-.47,1.44a12.89,12.89,0,0,0,1.25.85c.59.37,1-.26,1.07-.65s.41-.71.28-1S156.57,306.47,156.41,306.41Z" transform="translate(-52 -261.96)"/><path class="cls-11" d="M180.5,297.11c-.07.15-1.25,1.6-1.15,1.9s.56.34.89.56,1,.43,1.23-.24a13.13,13.13,0,0,0,.35-1.47C181.85,297.58,180.91,296.78,180.5,297.11Z" transform="translate(-52 -261.96)"/><path class="cls-11" d="M180.38,301.92c-.09-.56-.4-.33-.77-.27s-.4,1.27-.54,1.39,1,1.15,1.46.88.23-.43.42-.93S180.48,302.48,180.38,301.92Z" transform="translate(-52 -261.96)"/><path class="cls-7" d="M137.24,336.77c-.65-.1.31-.63.49-.86s-1.26.3-2.71.58-2.56-.27-4.28.11a4.59,4.59,0,0,0-2.57,1.53s-1.3.59-1.4.25-.93.3-1.81,1a9.61,9.61,0,0,0-1.46,1.47s1.33-.61,1-.21.39.92,1,1,1.73-.76,3.29-1.49,1.5.24,2.86,0A5.56,5.56,0,0,0,134,339a7.8,7.8,0,0,1-.78,1.09s1.32-.7,2.66-1.28,2.51-.18,3.3-.52.32-.91-.37-1.27C138.84,337,137.88,336.86,137.24,336.77Z" transform="translate(-52 -261.96)"/><path class="cls-7" d="M122,340.1c-.54,0-2.08.1-2.08.1a9.14,9.14,0,0,0-4-.35c-1.79.34-3.09,1.24-1.32,1.15a10.22,10.22,0,0,1,3.38.61c.74.11,1.71-.66,2.85-.74S122.56,340.1,122,340.1Z" transform="translate(-52 -261.96)"/><path class="cls-7" d="M155.52,339.86c.43-.16,1.74.78,1.06-.12a20.77,20.77,0,0,0-4.58-4c-1.57-.87-3.34-.78-4.07-1.26s.16.82.75,1.25a16.77,16.77,0,0,0,1.88,1s-3.2-.75-4.69-2.22-1.78-3.49-2.6-4-2.1.75-.65,2.52a14.88,14.88,0,0,0,5.27,3.82c1.29.47,3,.45,4.6,1.52s1.88,1.92,1.41,1.82-1.76-.9-1.38-.32,1.28,1,.89.95-2.63-1.41-2-.65a4,4,0,0,0,1.59,1.09l2,1.13-.85-1,2.62,1.22s-1.87-1.82-1.67-1.71,4,1.64,3.38,1.05S155.1,340,155.52,339.86Z" transform="translate(-52 -261.96)"/><path class="cls-8" d="M130.74,336.6a4.59,4.59,0,0,0-2.57,1.53s-1.3.59-1.4.25-.44,0-.94.34c.13.19-.32.41,0,.84a1.51,1.51,0,0,0,1.93-.14c.61-.53.79-.91,1.55-.84s1.64.19,2-.17a1.45,1.45,0,0,1,1.48-.64,4.44,4.44,0,0,0,2.55-.19c.39-.23.27-.8.12-1.19l-.47.1C133.56,336.77,132.46,336.22,130.74,336.6Z" transform="translate(-52 -261.96)"/><path class="cls-8" d="M115.94,339.85a4.28,4.28,0,0,0-.54.12,3.28,3.28,0,0,0,.72.38c.73.28,1.12.68,1.9.55a9.74,9.74,0,0,1,1.79-.27c.52,0,1.44,0,1.42-.24,0-.06.1-.16.26-.27l-1.54.08A9.14,9.14,0,0,0,115.94,339.85Z" transform="translate(-52 -261.96)"/><path class="cls-8" d="M152,335.72c-1.57-.87-3.34-.78-4.07-1.26-.14-.09-.22-.11-.26-.09a29.09,29.09,0,0,0,2.79,1.5c1.07.46,1.82.61,2,1.09s.94.49,1.4,1.06.25,1.17,1.2,1.09,1.74,1,1.75,1h0v0a.78.78,0,0,0-.19-.34A20.77,20.77,0,0,0,152,335.72Z" transform="translate(-52 -261.96)"/><path class="cls-8" d="M142,331.44a14.18,14.18,0,0,0,1.32,1.49c.54.42.57-.77.44-1.44a1.57,1.57,0,0,1,0-.48,1.65,1.65,0,0,0-.46-.51C142.73,330.15,142,330.59,142,331.44Z" transform="translate(-52 -261.96)"/><path class="cls-9" d="M178.33,436.23l-.79-.76-.36-4a21.35,21.35,0,0,1-.41,2.11,7.21,7.21,0,0,0,.07,3.05c.21,1.18.49,2.52.49,2.52L176,437.7a12.43,12.43,0,0,1,.82,3.07,32.79,32.79,0,0,1-.83,3.72l2.12-3.08a32.84,32.84,0,0,0-1,3.85,21.18,21.18,0,0,0,.07,4.94l.45-2.49s.76,2.28.89,3.11.73,5.38.73,5.38l.18-3.34,1.29,3.65-.11-2.66,1.71,2.67s-1.28-4.09-1.54-5.56a10.11,10.11,0,0,1,.21-3.42l.76,2.91a21.7,21.7,0,0,0-.36-5.39,20.07,20.07,0,0,1-.72-3.75l1,2a10.14,10.14,0,0,0-1-3.65A15.34,15.34,0,0,0,178.33,436.23Z" transform="translate(-52 -261.96)"/><path class="cls-9" d="M146.85,395.85s-5.51,3.46-5.15,3.85c0,0-1.11,3.41-.78,3.24s2-2.25,1.36-.75-2.25,4.52-2.07,4.41,2-2.56,1.7-1.55-1.09,3.71-1.09,3.71,1.44-2.11,1.29-1.16-.77,4.52-.66,4.25,1.61-3.6,1.09-1.35a23.64,23.64,0,0,0-.67,4.44c0,.3-.15,3-.06,3.23s1.38-5.52,1.5-4.32a34,34,0,0,1-.16,4.2s1.19-6,1.32-5.8.79,2.72.68,2.09,0-6.85.39-5.71.47,4.14.47,3,1-6.84.83-6.5a19.53,19.53,0,0,1-2.36,2.87c.13-.37,1.52-4.62,1.79-5.36-.24.58-1.88,3.49-1.81,2.83s2-5.84,1.83-5.47-2.38,3.81-2,2.66c.28-1,1.58-4,1.8-4.51a8.42,8.42,0,0,1-2.07,2.35C144,400.28,146.85,395.85,146.85,395.85Z" transform="translate(-52 -261.96)"/><path class="cls-9" d="M146,398.17h0C146.1,398,146.09,398.07,146,398.17Z" transform="translate(-52 -261.96)"/><path class="cls-9" d="M168,413.12l-.06.09Z" transform="translate(-52 -261.96)"/><path class="cls-9" d="M146.27,402.66a.38.38,0,0,1,0-.11S146.3,402.56,146.27,402.66Z" transform="translate(-52 -261.96)"/><path class="cls-9" d="M165.91,382.15a.72.72,0,0,0-.22.13S165.76,382.26,165.91,382.15Z" transform="translate(-52 -261.96)"/><path class="cls-9" d="M175.78,391.59c.05-.17,2.85-2.92,2.49-2.75s-3.86,2.62-3.72,2.44,3.61-3.28,2.59-2.66-2.86,2.11-2.73,1.9-.35-.75,3.71-3.41c0,0-2.42,1.12-4.32,2.29s-3.2,3.87-4.21,5.93a13.68,13.68,0,0,0-1.11,4.74s3.71-5.14,3.7-4.86-1.15,3.46-1.15,3.46,2.82-3.72,2.74-3.47-1.42,3.39-1.78,4.18c.56-1,3.53-5.66,4.17-6.46a10.59,10.59,0,0,1,1.94-2.29c.76-.48,1.68-1.12,1.68-1.12s-2.08,1-2.74,1.4S175.72,391.77,175.78,391.59Z" transform="translate(-52 -261.96)"/><path class="cls-9" d="M174.14,374.74c.1-.23-3.74,3.24-3.74,3.24l3.32-3.86a13.49,13.49,0,0,0-4.05,2c-1.51,1.24-5.24,4.76-5.52,5.06L163,382l3.73-1.75-2.3,1.89,3.9-1.88s-1.76,1.4-2.38,1.85a32.15,32.15,0,0,1,4.65-1.37c2.58-.62,5.71-6.08,6-6.5s-4.7,4.17-5.11,4.55S174.05,375,174.14,374.74Z" transform="translate(-52 -261.96)"/><path class="cls-9" d="M167.68,410.41l.57-3-1.17,1.27.57-2.49-1.06,1.54.41-3.23-.93,1.87-1.41,5.25,1.31-1.7s-.92,3.5-.1,4.82a11.81,11.81,0,0,1,.95,4.23,15.29,15.29,0,0,1,.8-2.7c.11.27-.19,2.84,0,3.7s1.12,4.16,1.12,4.16l.08-2.48a30.63,30.63,0,0,0,1,3.38c.53,1.37,1.4,3.8,1.47,4.28s.06-2.85.06-2.85a31,31,0,0,1,1.64,3.45c.08.54-.47-3.28-.66-4.71s-2.47-4-2.68-4.57S171,421,171,421s-1.51-1.68-1.27-3a18.45,18.45,0,0,0,.35-4.66c-.19-.8-.86,1.59-.86,1.59s.19-3.15.24-3.67-1.17,1.43-1.45,1.87l-.06.09.06-.09a8.29,8.29,0,0,0,1.27-4.07C169.18,407,167.68,410.41,167.68,410.41Z" transform="translate(-52 -261.96)"/><path class="cls-9" d="M172,399.38c-.05.09-.08.17-.09.19S171.93,399.52,172,399.38Z" transform="translate(-52 -261.96)"/><path class="cls-8" d="M169.63,378.69c-.65-.21.5-1.16.74-2s-1.44,1-2,1.77l-1.38.9s1.18,0,1.63.54a3,3,0,0,0,2.11.64c.73,0,1.46-.83.95-1.41S170.28,378.9,169.63,378.69Z" transform="translate(-52 -261.96)"/><path class="cls-8" d="M146.27,402.66a.38.38,0,0,1,0-.11S146.3,402.56,146.27,402.66Z" transform="translate(-52 -261.96)"/><path class="cls-8" d="M145.89,398.52l-.07,0c-.59.85-1.88,2.16-1.85,2a13.32,13.32,0,0,1,.83-1.44,3.82,3.82,0,0,0-1.67,1.53c0,.5.58,1.38.29,2.61s-.46,1.49-.1,2.56a7.48,7.48,0,0,1,.13,3,18.22,18.22,0,0,1,.05,2.22c-.15,1.22,1.11.3,1.48.88a2.05,2.05,0,0,1,.13.35c0-1.93.17-4.37.43-3.62.4,1.14.47,4.14.47,3s1-6.84.83-6.5a19.53,19.53,0,0,1-2.36,2.87c.13-.37,1.52-4.62,1.79-5.36-.24.58-1.88,3.49-1.81,2.83s2-5.84,1.83-5.47-2.38,3.81-2,2.66C144.48,401.86,145.47,399.52,145.89,398.52Z" transform="translate(-52 -261.96)"/><path class="cls-8" d="M168.76,424.14l.08-2.48a30.63,30.63,0,0,0,1,3.38l0,.08a4.38,4.38,0,0,0-.09-2.49c-.4-1.16-.95-2-1-2.38a14,14,0,0,0,.15-2.3c-.11-1.17-.25-1.4-.28-2.32s-.17-.81-.88-1.8a3.63,3.63,0,0,1-.87-1.75,5.47,5.47,0,0,1,.27-2.15c.21-1.15-1-.89-1.42-1.2a3,3,0,0,0-.26-.17l-.82,3.07,1.31-1.7s-.92,3.5-.1,4.82a11.81,11.81,0,0,1,.95,4.23,15.29,15.29,0,0,1,.8-2.7c.11.27-.19,2.84,0,3.7S168.76,424.14,168.76,424.14Z" transform="translate(-52 -261.96)"/><path class="cls-8" d="M173.29,392.82a9.17,9.17,0,0,1,.81-1.46l-1.17.6a8,8,0,0,0,.2-1.1c0-.47-.37-.62-1,.14a25.35,25.35,0,0,0-2.5,4.33,9.16,9.16,0,0,0-.56,1.48,8.86,8.86,0,0,0,1.82-1.35,12.7,12.7,0,0,1,1.53-1.74c.46-.46.87.42,1.56.06s1.12-1.58,1.24-1.82S173.44,392.73,173.29,392.82Z" transform="translate(-52 -261.96)"/><path class="cls-8" d="M176.67,435.48c0,.38.1.78.17,1.2.21,1.18.49,2.52.49,2.52L176,437.7a12.43,12.43,0,0,1,.82,3.07,32.79,32.79,0,0,1-.83,3.72l2.12-3.08a32.84,32.84,0,0,0-1,3.85c0,.25-.07.51-.09.79a1.68,1.68,0,0,1,.61,1.66s.13.39.29.91a14.73,14.73,0,0,0,1.27,1.64,29.29,29.29,0,0,1,.25-3.16,3.69,3.69,0,0,0-.5-3c-.79-1.3.22-1.25.43-2.69s-.71-2-1.41-2.91A17.74,17.74,0,0,1,176.67,435.48Z" transform="translate(-52 -261.96)"/><path class="cls-10" d="M160.81,325.37c-.45.11.42,1.25.87,1.62s.28,1.36,1.11,1.52.67-1.52.67-1.52S161.26,325.26,160.81,325.37Z" transform="translate(-52 -261.96)"/><path class="cls-10" d="M160.88,321.1c-1.38.41-2,1.55-1.1,2.56s2.53.91,3.26,1.86,2.5-.75,1.35-2.69C164.39,322.83,162.25,320.7,160.88,321.1Z" transform="translate(-52 -261.96)"/><path class="cls-10" d="M190,314.11c-.41.22-.88,3-.88,3s1,1.34,1.52.67-.29-1.3-.2-1.87S190.39,313.89,190,314.11Z" transform="translate(-52 -261.96)"/><path class="cls-10" d="M187.07,311c-1.29.63-1.45,3.64-1.45,3.64.46,2.21,2.9,2.28,2.81,1.09s1.2-2.23,1.17-3.57S188.36,310.37,187.07,311Z" transform="translate(-52 -261.96)"/><path class="cls-12" d="M239.65,421.4s.92,1.5,1.09,1.94-.7-.55-1.23-1.13.33,1,.41,1.32-.9-.69-1.11-.74.62,1.68.75,2-1.87-2.07-2.26-2.43.49,1.51.51,1.79.36,1.9-.38,1.24-.05.81,0,1.21-.49-.47-.83-.79,0,.65.08,1.17-1.29-1.36-1.7-1.89.75,2.35.78,2.59a22.76,22.76,0,0,1-2.26-2.27c-.7-.71.4,1.32.78,2.56s-.95-.8-1.37-1.23,0,1.41,0,1.72-.44-.59-.76-1.12-.18,1.51-.18,1.51-1.75-2.15-2.07-2.66.68,3.36.66,3.87-.95-1.43-1.19-1.9.4,1.76.48,2.2-.55-.73-.64-.95-.19.93-.19,1.24-.62-.64-.76-.93a17.11,17.11,0,0,0,.42,2c.08.45-.77-.89-1.33-1.78s.1,1.06.09,2-.27-.55-1.14-2.23,0,2,0,2.5-.86-1.5-1-1.82.46,2,.46,2a15,15,0,0,0-1.44-1.5c-.2-.07-.24,1.68-.44,1.49a12.31,12.31,0,0,1-.68-1.28s.17,2.54.13,2.75a12.94,12.94,0,0,1-1.18-2s-.5,1.56-.83,1,.07.84,0,1.32-1.19-1.93-1.68-2.81.36,1.43.71,4.16a5.79,5.79,0,0,1,.07.76l-.45-.61c-1.57-2.26-2.49-4.55-2.26-3.56s1,3.51.64,3.21-1-1.61-.89-1-1.3-.19-1.3-.19a12.43,12.43,0,0,1,.46,2.26c-.17-.12-1.73-2.12-1.76-2.12a11.89,11.89,0,0,1,.36,1.4c0,.28-1.22-1-1.32-.81a15.18,15.18,0,0,0-.06,2.08s-1.17-2.15-1-1.83.91,2.36.5,2-2.21-3.64-1.72-1.82,1.29,3.09.66,2.42-1.44-2.56-1.26-1.53.45,2.6.21,2.22-1.1-2.06-1-1.75.28,1.43.06,1.2-1.06-1-1-.79.4,1.52.16,1.14-1.26-2.47-1.12-2,.74,2.57.39,2.21-2.21-3.9-2.11-3.31.26,3.36.26,3.36-1.27-1.62-1.15-1,.36,1.59.18,1.34-1.13-1.89-1.14-1.28.36,3-.18,1.83-1.11-3.41-1.15-2.42a21.72,21.72,0,0,1-.15,3.2c-.13-.2-1.2-3.12-1.15-2.45s.31,3,0,2.55-.68-1.37-.72-.92.16,1.45-.09,1.14-.71-1.87-.82-.88-.95-.45-1.12-.67-.78-2.18-.83-1.66.09,3.64,0,3.31-.68-2.16-.8-2-.2,1.55-.33,1.29-.57-2.05-.58-1.26,0,2.1-.15,1.66-.5-2.16-.5-2.16l-.12,1-.69-.4s1.7,4.12,1.58,3.8.36-1.47.36-1.47l1.31,2.58-.34-2.45,1.7,2.65s-.6-1.31-.43-1.19,1.23,1.35,1.23,1.35-.43-1.75-.2-1.52,1.92,2.18,1.76,1.77-.88-2-.5-1.69,2.2,2,2.2,2-.68-2-.21-1.59,2.39,2.63,2.2,2.14a12.65,12.65,0,0,1-.34-3.11c.14.11,1.6,2.47,1.53,2.21s-.39-2.74,0-2.08,1,1.89.87,1.45-.53-2.87.15-1.75,1.23,2.54,1.08,1.53-.86-3.5.08-2.11,1.3,2.18,1.19,1.65-.59-2.47,0-1.67,2,2.21,1.78,1.73-.82-2.42-.37-1.9a22.37,22.37,0,0,0,2.32,1.87s-.29-2.56,0-2,1.26,2,1.06,1.54-.46-2.3-.27-2a9.47,9.47,0,0,0,1.25,1.25c0-.14-.4-2.08-.24-1.89s1.74,2.19,1.56,1.72-1-3.73,0-2.08,1.51-.52,1.76-.52,2.17,4.13,2.07,3.85-.16-4-.16-4,2.46,2.79,2.56,3.07-1.24-4.09-1-4.25,2,1.12,1.65-.8,1.24,1.07,1.42,1.53,0-2.07,0-2.32,1,1.42,1.09,1.56a9.66,9.66,0,0,0,.09-1.76c0-.34,1,1.21,1.17,1.68s-.11-1.22-.26-1.85,1.36,1.46,1.36,1.46a22.91,22.91,0,0,0,.46-2.95c0-.68.87,1.15,1,1.66s.23-1.47.15-2.48.88.76,1.15,1.23,0-.36-.23-2,.9.66,1.47,1.5,0-.57-.23-1.86,1,.82,1.29,1.2-.19-.9-.33-1.66,1.29,1.29,1.41,1.53-.38-2.5-.35-2.67a12.49,12.49,0,0,1,1.84,2.54c.19.49.12-2.44.19-3.07s.91,1.32.91,1.32.2-2.5.3-2.95.61,1.18.77,1.59.08-2.17.11-2.49.88,1.26.88,1.26,0-1.62,0-1.82.48,1.16.48,1.16l-.52-3.1,1.4,2-.77-2.78s1.13.51,1.25.83-1.38-3.86-1.38-3.86l-.24.75Z" transform="translate(-52 -261.96)"/><path class="cls-12" d="M240.39,439.17c-.58-1.26-.15,1-.18,1.13s-.28,1.18-.28,1.18l-.88-.38c-.48-.2-.13.62-.21,1.21s-.7-.55-1.06-.75.12.7.19,1.43-.71-.32-1.23-.56.06,1,0,1.34-.81-.51-.81-.51-.1.86-.61.33,0,.33,0,1-.31-.17-.68-.59.06.89.11,1.56-.22-.25-.72-1,0,.94,0,1.21-.67-.69-1-1-.23,1.25-.23,1.25-.53-.83-.63-1,0,1.28-.18,1-.21.74-.34,1.74-.49-.22-.87-.89,0,.62,0,1.6-.29-.27-.81-1.39-.06.72-.3,1.47-.93-1.47-1.37-2.14.46,1.45.44,2.34-.47-.73-.75-1-.3,1.12-.53,1.4-.36-.61-.55-.7-.26.6-.44.68-.77-1.35-1-1.92a28.25,28.25,0,0,1,.52,3.76,30.49,30.49,0,0,1-2.15-3.13c.22.57.75,2,.56,2.08s-.7-.39-.78-.2.42.94.06.88-1.3-1.07-1.33-.67.73,1.88.11,1.24-1.37-2.84-1.24-2,1.09,2.91.41,2.51-1.56-2.07-1.2-.89,1,2.28.33,1.57-1.24-1.94-1.07-1.19.73,1.89,0,1.24-1.42-1.37-1.42-1.06-.88-.85-.83-.65.21,1.18.21,1.18-1-1.25-1-.78.19,1.6,0,1.43-1-1.74-.83-.88.55,1.74.13,1.21-1-1.79-1-1.23.28,1.37-.12.9-.61-1.43-.63-.7-.68.16-.68.16,0,1.14-.25.92-.66-1.54-.89-1-.09,1.83-.53,1.24-.7-1.58-.82-1.19.18,1.66-.28,1.27-.75-1.22-1-.76-.39.88-.39.88-.87-.58-1-.69-1.31-2-.89-.72,1.16,2.34.71,2.08a4.18,4.18,0,0,1-1-1.06,12.66,12.66,0,0,0,1.15,1.57l1,1-.48-1.16a11.59,11.59,0,0,0,1.09,1.24c-.08-.22-.59-1.62-.3-1.17s1.58,2.91,1.43,2.34-.78-2.88-.29-2.25,1.21-.59,1.41-.07,1.33,2.57,1.15,2-.75-2.57-.35-1.94,1.72,2.57,1.47,1.82-1.13-3.4-.25-2,1.11,1.77,1,1.18.25-.54.78-.27.28-.71.65-.48-.29-1.36.65-.53,1.64,1.88,1.55,1.16-1.32-3-.19-1.59,1.86,2.43,1.57,1.69-.75-1.88,0-1.31,1.75,1.53,1.62,1.17-.77-2.31-.42-1.94a16.06,16.06,0,0,0,1.94,1.7c-.21-.33-.43-2.07-.06-1.61s1.61,1.89,1.37,1.33-.33-1.39,0-1.16,1,.43,1,.29-.45-1.24.15-.63.71.89,1,1c.12,0,.23-.15.36-.37.25.08.46.13.52,0,.15-.25.05-.52.08-1.38s.46.23.54.36.45-.49.52-.87.57.29.77.87.16-1.32.12-1.9,1,.85,1,1.24a14.63,14.63,0,0,0,.3-2.57c0-.51.86,1.36,1,1.72s.27-1.05.41-1.95.56.25.84,1,.15-.49,0-2.3.52.71.94,1.3.23-.65.36-1.9.73.38.85,0,.57.47.79-.09.42-.82.76-.32.28.08,0-1.57.84.91,1.15,1.63,0-1.6-.13-2.33.8,1.13,1,1.67-.31-1.74-.51-2.26,1.16-.1,1.1-.89,1,1.33,1.3,1.85-.44-2.15-.52-2.69.48.85.57,1.07a11.84,11.84,0,0,0,0-1.65l.43,1.18.07-1.41a12.83,12.83,0,0,0-.2-1.93,4.31,4.31,0,0,1,0,1.45C241.1,441.68,241,440.42,240.39,439.17Z" transform="translate(-52 -261.96)"/><path class="cls-12" d="M182.64,401.36l2.09-3s-.71,3.41-.53,2.91,1.29-2.51,1.4-2.24a14.17,14.17,0,0,1,0,2.07l1.32-1.83,1.52-.33.18,1.88s.89-2.61,1-2.34-.31,2.39-.06,1.91,1.24-2.8,1.4-2.24.19,3.52.29,3a31.19,31.19,0,0,1,1.79-3.45l.32,1.95,1-1.5.89,1.35s1-2.52,1.19-2,.53,3.26.58,2.29.21-2.78.44-2.37,2.08.33,2.33,1.12.44-1.24.44-1.24l1.17,2.25.09-2s1.15-.19,1.44.08,2.06,1.53,2.06,1.53-.75-2.1-.51-1.81,1.58,1.71,1.58,1.71,0-2,0-2.33.83,1.69.83,1.69.47-2.13.5-2.52,1-1,1-1l1.4,1.41-.64-2.46s1.51,1.36,1.16.62,1.09-1.93,1-2.39,1.23.79,1.92,1.46-.9-1.54-1.12-2.08,2.22.65,2.22.65l-.25-1.6,1.71.47-1.07-1.66a30.37,30.37,0,0,1,3.65,1.36c.43.33-1.52-1.87-1.78-2.4s2,.54,2.54.72-1.22-1.1-1.33-1.38,2.31,1.06,2.31,1.06L219,387.16l1.35-.77,2.21.47a13.34,13.34,0,0,1-1.39-1.54c-.11-.27,2.07.46,2.54.72s-2.35-1.8-2.35-1.8l3.57.82-2.65-1.62,4.23,1.45s-3-2.86-2.84-2.61c.47.94-1.63-1-1.63-1a11.47,11.47,0,0,1-2-1.16c-.48-.44.65,2,.65,2s-.86-.17-1.21-.29.67.94.77,1.21-1.38-.41-2-.79.7,1.17.7,1.17a8,8,0,0,1-1.81-.87c-.82-.56,1,1.55,1,1.55a18.45,18.45,0,0,1-2.33-1.11c-.28-.27,1.36,1.93,1.53,2.37s-2.68-1.55-2.68-1.55a23.81,23.81,0,0,1,1.38,2,21.56,21.56,0,0,1-3.22-2.79c-.54-.6,1.28,2.53,1.41,2.86s-6.45-4.18-6.87-4.46,6,5.15,6.14,5.43-2.54-1.35-3.11-1.88,1.45,2,1.45,2-1.73-.84-2.26-1.08.27,1.47.35,2-1.29-.63-1.74-.84.54,1.56.78,2.16-1.34-1.25-1.5-1.5a17,17,0,0,0,.39,2.43l-1.36-1.93.42,2.67-1-2.05-.7,1.21,0,1.63L203.88,390l-1.14.57-1.21.34.18,2.07-1.08-1.22-1.33-.43.61,2.22-1.48-2.26.29,2.34a17.17,17.17,0,0,0-1.35-2.06c0,.3.13,2.72-.1,2.12s-.69-2.57-.88-2.12-.42,2.24-.72,1.79-.86-2.24-1.09-1.72-.94,2.32-.94,2.32-.22-3.26-.28-2.47-.94,3.75-1.05,3.48,1-8.63.9-8.15-2,8.25-2.09,7.92-.88-3.87-.87-3.06-.39,4.55-.52,4.22a21.84,21.84,0,0,1-.31-2.39s-.78,3.38-.95,2.94-.42-3.17-.46-2.78a18.46,18.46,0,0,1-1,2.39s0-2.81-.29-1.84a7.75,7.75,0,0,1-.75,1.87s-.05-2.06-.27-1.35-.86,2.22-1,1.95,0-1.74-.24-1.42-.7,1-.7,1-.81-2.58-.87-1.93a11.41,11.41,0,0,1-.72,2.22s-.25,2.86-.53,1.85c0-.3-.35,3.84-.35,3.84l2.16-3.91Z" transform="translate(-52 -261.96)"/><path class="cls-12" d="M188.26,428.41v.06S188.26,428.46,188.26,428.41Z" transform="translate(-52 -261.96)"/><path class="cls-12" d="M237.39,405l-2.6-3.46-.06,1.56-.33.76s.79,2.21,1,2.81-1.42-.83-1.51-1.68l.08.85a7.12,7.12,0,0,1-1-.93c-.25-.34.29,2.66.29,2.66s-1.26-1.21-1.72-1.6.36,1.24.51,1.94-.73-.28-1.34-.61.08,1.16,0,1.68-1.06-1.16-1.42-1.46.22,1.67.21,2.12-1.92-2-2.38-2.35.34,1.69.43,2.54-.87-.67-.87-.67l-.07,1.72s-1.6-2.09-1.87-2.61-.46,2.13-.46,2.13a18.63,18.63,0,0,1-1.48-1.45c-.25-.34.63,4.17.71,5s-1.34-1.87-1.93-2.77,1,3.38.94,3.72-2.47-2.76-2.83-3.37,1.46,3.46,1.67,4-1.59-1-3.06-2.22,1.21,2.49,1.21,2.49l-3.65-2.3.94,3.85s-2.13-3.45-2.39-4.11,1.27,3.92,1.26,4.36-.85-1.56-1.57-2.79.51,3.07.51,3.07-1.56-2.92-2.07-4.1,1,3.46.83,4.39c-.72-.6-2.74-5-2.33-3.82s1.22,4.44,1.22,4.44-2-4-1.68-2.62,1,3.44.71,3.12-2.25-4.73-2-4.07,1,4.64,1,4.64l-1.9-3.48-1.15,4.16s-.54-4.57-.78-2.66-.57,4.25-.78,3.7-1.6-4.79-1.46-4.09.44,4.61.17,4.4-2-4.46-1.8-3.39.95,4,.44,3.35-2.89-4.61-2.84-4.19-.13,2.06-.13,2.06-1.93-1.83-1.77-1.26.37,3.19.37,3.19l-1.21-1.23s.31,1.76-.2,1.08-1.31-2.77-1.38-2.17.12,3.66-.18,3.34-1.21-2.17-1.28-1.71.31,2.4-.07,2-.87-1.93-1.1-1.27-.22,2-.58,1.36-.86-2.38-.93-1.78-.2,2.34-.2,2.34-1.61-2.59-1.57-2.17a7.32,7.32,0,0,1-.14,1.38l-.51-.68c.51.68.24,2.86,0,2.26s-1.13-2.78-1.13-2.78l-.74-.34-1.11-1.11.41,4.31.42-2.08s1,5.32,1.06,5.94c0-.42.19-3.82.19-3.82s.39.77.9,2a21.65,21.65,0,0,0,1,2.13l-.35-2.82a14.42,14.42,0,0,0,1.35,2,5.36,5.36,0,0,0,1.18,1,3.09,3.09,0,0,1-.79-2c0-1.15,1.77,1.48,1.77,1.48l0-2.35s1.61,2.65,1.74,2.76-.21-2.37-.13-2.24,1.54,1.92,1.9,2.38-.65-2.71-.64-3.09,2.3,2.48,2.23,2.28-.63-2.81-.63-2.81,2,2.38,2.26,2.59-.25-2.16-.09-2.07,1.75,1.69,1.75,1.69l.22-2.13a4.59,4.59,0,0,0,2.34,1.61c1.41.33.46-1.66.4-1.82s2.31,2.19,2.31,2.19l-.18-1.66s3.83,4.77,3.5,3.9a32.78,32.78,0,0,1-.44-5.11l1.66,2.88-.36-3L213,425.9s-.61-2.22-.18-1.75,1.83,3.32,1.6,2.72-1-3.95-.41-3.12,2.77,3.21,2.77,3.21,0-3.21-.1-4.24,1.56,2,1.79,2.58-.64-2.46-.64-3.09,1,1.43,1,1.43l.24-2.24,1.75,2.47-.7-3.25a33.05,33.05,0,0,1,3.11,4.09c.34.87,0-5.24,0-5.24l1,1.35s.18-3.34.24-3.18.7,2.28,1.52,1.08a4.51,4.51,0,0,0,.65-2.76l1.59,1.43s.12-2.25.17-2.43,1.27,1.94,1.32,1.6-.07-3.43-.07-3.43,1.36,2.31,1.43,2.5-.14-3.47.12-3.19,1.64,3.3,1.6,2.71-.17-2.89-.2-3S234,414,234,413.87s-.56-3.22-.56-3.22l1.56,1.76s-.49-3.11.31-2.29a3.11,3.11,0,0,1,.79,2,6,6,0,0,0,.16-1.58,14.35,14.35,0,0,0-.34-2.38l1.63,2.33a20.34,20.34,0,0,0-.68-2.26c-.46-1.27-.69-2.09-.69-2.09s2.46,2.36,2.71,2.7c-.36-.52-3.21-5.12-3.21-5.12Z" transform="translate(-52 -261.96)"/><path class="cls-12" d="M238.89,408.87s0,.06,0,.05Z" transform="translate(-52 -261.96)"/><path class="cls-12" d="M233.92,405h0C233.9,404.75,233.88,404.63,233.92,405Z" transform="translate(-52 -261.96)"/><path class="cls-12" d="M189.34,422.21Z" transform="translate(-52 -261.96)"/><path class="cls-13" d="M240.21,440.3c0,.17-.28,1.18-.28,1.18l-.88-.38c-.48-.2-.13.62-.21,1.21s-.7-.55-1.06-.75.12.7.19,1.43-.71-.32-1.23-.56.06,1,0,1.34-.81-.51-.81-.51-.1.86-.61.33,0,.33,0,1-.31-.17-.68-.59.06.89.11,1.56-.22-.25-.72-1,0,.94,0,1.21-.67-.69-1-1-.23,1.25-.23,1.25-.53-.83-.63-1,0,1.28-.18,1-.21.74-.34,1.74-.49-.22-.87-.89,0,.62,0,1.6-.29-.27-.81-1.39-.06.72-.3,1.47-.93-1.47-1.37-2.14.46,1.45.44,2.34-.47-.73-.75-1-.3,1.12-.53,1.4-.36-.61-.55-.7-.26.6-.44.68-.77-1.35-1-1.92a28.25,28.25,0,0,1,.52,3.76,30.49,30.49,0,0,1-2.15-3.13c.22.57.75,2,.56,2.08s-.7-.39-.78-.2.42.94.06.88-1.3-1.07-1.33-.67.73,1.88.11,1.24-1.37-2.84-1.24-2,1.09,2.91.41,2.51-1.56-2.07-1.2-.89,1,2.28.33,1.57-1.24-1.94-1.07-1.19.73,1.89,0,1.24-1.42-1.37-1.42-1.06-.88-.85-.83-.65.21,1.18.21,1.18-1-1.25-1-.78.19,1.6,0,1.43-1-1.74-.83-.88.55,1.74.13,1.21-1-1.79-1-1.23.28,1.37-.12.9-.61-1.43-.63-.7-.68.16-.68.16,0,1.14-.25.92-.66-1.54-.89-1-.09,1.83-.53,1.24-.7-1.58-.82-1.19.18,1.66-.28,1.27-.75-1.22-1-.76-.39.88-.39.88-.87-.58-1-.69-1.31-2-.89-.72c.07.22.15.44.23.64.39.28.71.61,1.12.85a1.58,1.58,0,0,0,1.41.24c.5-.14.51-.21.89,0a1.42,1.42,0,0,0,1.07.1c.3-.12.49-.44,1.21-.33s.57,0,1.26.17,2.31-.56,3-.72a2.1,2.1,0,0,1,1.52,0c.77.21,1.13.94,1.42.45a1.33,1.33,0,0,1,1.45-.78,1.76,1.76,0,0,0,1.57-.41c.33-.3,1.16-.11,1.66-.11a2.51,2.51,0,0,0,1-.32,2.63,2.63,0,0,0,.95-.43c.37-.34.86-1,1.31-1a1.79,1.79,0,0,0,1.44-.75,1.32,1.32,0,0,1,1.59-.4c.55.18.33-.61.75-1.28a2.1,2.1,0,0,1,1.12-1c.61-.33,2.27-.89,2.69-1.47s.36-.4.82-1,.82-.46,1.12-.57a1.38,1.38,0,0,0,.72-.79c.17-.39.23-.34.69-.58a1.54,1.54,0,0,0,.88-1.11c.14-.46.16-.92.26-1.39-.07-.21-.16-.42-.25-.63C239.81,437.91,240.24,440.14,240.21,440.3Z" transform="translate(-52 -261.96)"/><path class="cls-13" d="M182.6,398c.48-.28,1.1-1.15,1.18-.67s-.29,1.2.31.8,1.43-1.09,1.67-.79.45.56,1.28.5,1.8-.84,2-.63.42.79.85.45,1.47-1.54,1.85-1.42a26.7,26.7,0,0,0,3.22-.41c.76-.05,2.12.95,2.57.56s.49-1.28,1.44-1.21.89.39,1.86.38a7,7,0,0,0,1.9-.28,3.44,3.44,0,0,0,1.47-.68l.06-.05h.07a3.35,3.35,0,0,0,1.55-.47,7.2,7.2,0,0,0,1.59-1.08c.73-.64.46-.83,1.12-1.53s1.3-.06,1.89-.07.92-1.66,1.52-2.14a26.91,26.91,0,0,0,2.67-1.86c.2-.34,1.76-.14,2.32-.19s.33-.61.33-.9,1.26-.37,1.91-.88.64-.86.61-1.24,1.05-.43,1.76-.53-.05-.39-.31-.81.79-.18,1.33-.29-.36-.95-.9-1.39a9.14,9.14,0,0,1-1.77-1c-.48-.44.65,2,.65,2s-.86-.17-1.21-.29.67.94.77,1.21-1.38-.41-2-.79.7,1.17.7,1.17a8,8,0,0,1-1.81-.87c-.82-.56,1,1.55,1,1.55a18.45,18.45,0,0,1-2.33-1.11c-.28-.27,1.36,1.93,1.53,2.37s-2.68-1.55-2.68-1.55a23.81,23.81,0,0,1,1.38,2,21.56,21.56,0,0,1-3.22-2.79c-.54-.6,1.28,2.53,1.41,2.86s-6.45-4.18-6.87-4.46,6,5.15,6.14,5.43-2.54-1.35-3.11-1.88,1.45,2,1.45,2-1.73-.84-2.26-1.08.27,1.47.35,2-1.29-.63-1.74-.84.54,1.56.78,2.16-1.34-1.25-1.5-1.5a17,17,0,0,0,.39,2.43l-1.36-1.93.42,2.67-1-2.05-.7,1.21,0,1.63L203.88,390l-1.14.57-1.21.34.18,2.07-1.08-1.22-1.33-.43.61,2.22-1.48-2.26.29,2.34a17.17,17.17,0,0,0-1.35-2.06c0,.3.13,2.72-.1,2.12s-.69-2.57-.88-2.12-.42,2.24-.72,1.79-.86-2.24-1.09-1.72-.94,2.32-.94,2.32-.22-3.26-.28-2.47-.94,3.75-1.05,3.48,1-8.63.9-8.15-2,8.25-2.09,7.92-.88-3.87-.87-3.06-.39,4.55-.52,4.22a21.84,21.84,0,0,1-.31-2.39s-.78,3.38-.95,2.94-.42-3.17-.46-2.78a18.46,18.46,0,0,1-1,2.39s0-2.81-.29-1.84a7.75,7.75,0,0,1-.75,1.87s-.05-2.06-.27-1.35-.86,2.22-1,1.95,0-1.74-.24-1.42-.7,1-.7,1-.81-2.58-.87-1.93a9.83,9.83,0,0,1-.61,2C182.23,397,182.12,398.26,182.6,398Z" transform="translate(-52 -261.96)"/><path class="cls-13" d="M197.67,438.68c-.12.17-.2,1.55-.33,1.29s-.57-2.05-.58-1.26a13.22,13.22,0,0,1,0,1.68,1.68,1.68,0,0,1,.93.1c.16.12.44.08.78,0C198.23,440,197.77,438.52,197.67,438.68Z" transform="translate(-52 -261.96)"/><path class="cls-13" d="M196.11,438.21l-.12,1-.44-.26a10.61,10.61,0,0,1,.4,1.14c.06.29.35.34.67.34v0C196.44,439.94,196.11,438.21,196.11,438.21Z" transform="translate(-52 -261.96)"/><path class="cls-13" d="M237.81,424.16c0,.27.36,1.9-.38,1.24s-.05.81,0,1.21-.49-.47-.83-.79,0,.65.08,1.17-1.29-1.36-1.7-1.89.75,2.35.78,2.59a22.76,22.76,0,0,1-2.26-2.27c-.7-.71.4,1.32.78,2.56s-.95-.8-1.37-1.23,0,1.41,0,1.72-.44-.59-.76-1.12-.18,1.51-.18,1.51-1.75-2.15-2.07-2.66.68,3.36.66,3.87-.95-1.43-1.19-1.9.4,1.76.48,2.2-.55-.73-.64-.95-.19.93-.19,1.24-.62-.64-.76-.93a17.11,17.11,0,0,0,.42,2c.08.45-.77-.89-1.33-1.78s.1,1.06.09,2-.27-.55-1.14-2.23,0,2,0,2.5-.86-1.5-1-1.82.46,2,.46,2a15,15,0,0,0-1.44-1.5c-.2-.07-.24,1.68-.44,1.49a12.31,12.31,0,0,1-.68-1.28s.17,2.54.13,2.75a12.94,12.94,0,0,1-1.18-2s-.5,1.56-.83,1,.07.84,0,1.32-1.19-1.93-1.68-2.81.36,1.43.71,4.16a5.79,5.79,0,0,1,.07.76l-.45-.61c-1.57-2.26-2.49-4.55-2.26-3.56s1,3.51.64,3.21-1-1.61-.89-1-1.3-.19-1.3-.19a12.43,12.43,0,0,1,.46,2.26c-.17-.12-1.73-2.12-1.76-2.12a11.89,11.89,0,0,1,.36,1.4c0,.28-1.22-1-1.32-.81a15.18,15.18,0,0,0-.06,2.08s-1.17-2.15-1-1.83.91,2.36.5,2-2.21-3.64-1.72-1.82,1.29,3.09.66,2.42-1.44-2.56-1.26-1.53.45,2.6.21,2.22-1.1-2.06-1-1.75.28,1.43.06,1.2-1.06-1-1-.79.4,1.52.16,1.14-1.26-2.47-1.12-2,.74,2.57.39,2.21-2.21-3.9-2.11-3.31.26,3.36.26,3.36-1.27-1.62-1.15-1,.36,1.59.18,1.34-1.13-1.89-1.14-1.28.36,3-.18,1.83-1.11-3.41-1.15-2.42a21.72,21.72,0,0,1-.15,3.2c-.13-.2-1.2-3.12-1.15-2.45s.31,3,0,2.55-.68-1.37-.72-.92.16,1.45-.09,1.14-.71-1.87-.82-.88-.95-.45-1.12-.67-.78-2.18-.83-1.66.05,2.54,0,3.16a1.59,1.59,0,0,1,1.5.43c.79.88.56,1.33,1.34.77s1.3-1,2-.72.71.6,1.14.44a15.53,15.53,0,0,0,1.59-.93,8.85,8.85,0,0,0,1,0,9.17,9.17,0,0,0,2.13-.73c.28-.13,0-.75,1.19-.53s.77.89,2.29.28,2-1.38,3.45-1.48a6.65,6.65,0,0,0,3-.53,2.89,2.89,0,0,1,1.57-.11,3,3,0,0,1,1.24-1,6.6,6.6,0,0,0,2.59-1.63c1.14-.9,2-.66,3.55-1.22s.77-.78,1.51-1.75.94-.32,1.24-.41a8.73,8.73,0,0,0,2.07-.89,7.56,7.56,0,0,0,.78-.67,14.07,14.07,0,0,0,1.8-.38c.43-.16.18-.38.55-1.09s1-.74,2-.84.49-.28.48-1.47a1.59,1.59,0,0,1,.82-1.32c-.44-.44-1.81-2.06-2.12-2.35S237.79,423.88,237.81,424.16Z" transform="translate(-52 -261.96)"/><path class="cls-13" d="M233.92,405h0C233.9,404.75,233.88,404.63,233.92,405Z" transform="translate(-52 -261.96)"/><path class="cls-13" d="M239.92,423.53c.08.28-.9-.69-1.11-.74s.47,1.36.69,1.88c.28-.2.52-.35.56-.55s.35-.47.62-.7a12.81,12.81,0,0,1-1.17-1.21C239,421.63,239.84,423.24,239.92,423.53Z" transform="translate(-52 -261.96)"/><path class="cls-13" d="M234.73,403.11l-.33.76s.79,2.21,1,2.81-1.42-.83-1.51-1.68l.08.85a7.12,7.12,0,0,1-1-.93c-.25-.34.29,2.66.29,2.66s-1.26-1.21-1.72-1.6.36,1.24.51,1.94-.73-.28-1.34-.61.08,1.16,0,1.68-1.06-1.16-1.42-1.46.22,1.67.21,2.12-1.92-2-2.38-2.35.34,1.69.43,2.54-.87-.67-.87-.67l-.07,1.72s-1.6-2.09-1.87-2.61-.46,2.13-.46,2.13a18.63,18.63,0,0,1-1.48-1.45c-.25-.34.63,4.17.71,5s-1.34-1.87-1.93-2.77,1,3.38.94,3.72-2.47-2.76-2.83-3.37,1.46,3.46,1.67,4-1.59-1-3.06-2.22,1.21,2.49,1.21,2.49l-3.65-2.3.94,3.85s-2.13-3.45-2.39-4.11,1.27,3.92,1.26,4.36-.85-1.56-1.57-2.79.51,3.07.51,3.07-1.56-2.92-2.07-4.1,1,3.46.83,4.39c-.72-.6-2.74-5-2.33-3.82s1.22,4.44,1.22,4.44-2-4-1.68-2.62,1,3.44.71,3.12-2.25-4.73-2-4.07,1,4.64,1,4.64l-1.9-3.48-1.15,4.16s-.54-4.57-.78-2.66-.57,4.25-.78,3.7-1.6-4.79-1.46-4.09.44,4.61.17,4.4-2-4.46-1.8-3.39.95,4,.44,3.35-2.89-4.61-2.84-4.19-.13,2.06-.13,2.06-1.93-1.83-1.77-1.26.37,3.19.37,3.19l-1.21-1.23s.31,1.76-.2,1.08-1.31-2.77-1.38-2.17.12,3.66-.18,3.34-1.21-2.17-1.28-1.71.31,2.4-.07,2-.87-1.93-1.1-1.27-.22,2-.58,1.36-.86-2.38-.93-1.78-.2,2.34-.2,2.34-1.61-2.59-1.57-2.17a7.32,7.32,0,0,1-.14,1.38l-.51-.68c.51.68.24,2.86,0,2.26s-1.13-2.78-1.13-2.78l-.74-.34-1.11-1.11v.14a7.92,7.92,0,0,0,1.18,1.93,7.82,7.82,0,0,1,.88,1.66c.31.68.6.5,1.35,1s1.23-.38,1.23-.38.06-.21.89.22,1.29.4,1.6,0a1.28,1.28,0,0,1,1-.62c.39,0,.57.07,1.38.07s.75-.38,2-.07,1.28,0,2.13,0a10.37,10.37,0,0,1,2.06.18c1.39.16,2.41-1.93,3.84-1.17s2.53,1.79,3,.74.66-1.85,1.4-1.65a8.75,8.75,0,0,0,3.07,0c.33-.1.64-.63,1.13-1.09.67,0,1.25.2,1.56,0a8.68,8.68,0,0,0,2.29-2c.41-.64,1.11-.19,2.14.29s1.17-1,1.72-2.56,2.7-.65,3.62-1.71a10.23,10.23,0,0,1,1.41-1.52c.63-.56.85-.35,1.57-1.43s.94-.75,1.54-1.3.7-.71,1-1a1.26,1.26,0,0,1,1.19-.24c.5.09.87-.19,1.19-1.07s.52-.76.52-.76.92.33,1.16-.54.56-.93.34-1.64a8.36,8.36,0,0,1-.47-1.81,7.59,7.59,0,0,0-.42-2.23l-.09-.11Z" transform="translate(-52 -261.96)"/><path class="cls-13" d="M189.34,422.21Z" transform="translate(-52 -261.96)"/><path class="cls-13" d="M240.39,422l-.74-.63s.92,1.5,1.09,1.94v0c.24-.22.41-.44.26-.7a10.31,10.31,0,0,1-.47-1.11Z" transform="translate(-52 -261.96)"/><rect class="cls-14" x="721.5" y="123.54" width="482" height="157"/><path class="cls-15" d="M1253,544.17" transform="translate(-52 -261.96)"/></svg>